<svg version="1.1" viewBox="0.0 0.0 691.0 428.0" fill="none" stroke="none" stroke-linecap="square" stroke-miterlimit="10" width="691" height="428" xmlns:xlink="http://www.w3.org/1999/xlink" xmlns="http://www.w3.org/2000/svg"><path fill="#ffffff" d="M0 0L691.0 0L691.0 428.0L0 428.0L0 0Z" fill-rule="nonzero"/><path stroke="#cccccc" stroke-width="1.0" stroke-linecap="butt" d="M162.5 61.5L162.5 379.5" fill-rule="nonzero"/><path stroke="#cccccc" stroke-width="1.0" stroke-linecap="butt" d="M248.5 61.5L248.5 379.5" fill-rule="nonzero"/><path stroke="#cccccc" stroke-width="1.0" stroke-linecap="butt" d="M334.5 61.5L334.5 379.5" fill-rule="nonzero"/><path stroke="#cccccc" stroke-width="1.0" stroke-linecap="butt" d="M421.5 61.5L421.5 379.5" fill-rule="nonzero"/><path stroke="#cccccc" stroke-width="1.0" stroke-linecap="butt" d="M507.5 61.5L507.5 379.5" fill-rule="nonzero"/><path stroke="#cccccc" stroke-width="1.0" stroke-linecap="butt" d="M593.5 61.5L593.5 379.5" fill-rule="nonzero"/><path stroke="#333333" stroke-width="1.0" stroke-linecap="butt" d="M86.5 379.5L669.5 379.5" fill-rule="nonzero"/><path stroke="#cccccc" stroke-width="1.0" stroke-linecap="butt" d="M86.5 350.5L669.5 350.5" fill-rule="nonzero"/><path stroke="#cccccc" stroke-width="1.0" stroke-linecap="butt" d="M86.5 321.5L669.5 321.5" fill-rule="nonzero"/><path stroke="#cccccc" stroke-width="1.0" stroke-linecap="butt" d="M86.5 292.5L669.5 292.5" fill-rule="nonzero"/><path stroke="#cccccc" stroke-width="1.0" stroke-linecap="butt" d="M86.5 263.5L669.5 263.5" fill-rule="nonzero"/><path stroke="#cccccc" stroke-width="1.0" stroke-linecap="butt" d="M86.5 234.5L669.5 234.5" fill-rule="nonzero"/><path stroke="#cccccc" stroke-width="1.0" stroke-linecap="butt" d="M86.5 205.5L669.5 205.5" fill-rule="nonzero"/><path stroke="#cccccc" stroke-width="1.0" stroke-linecap="butt" d="M86.5 176.5L669.5 176.5" fill-rule="nonzero"/><path stroke="#cccccc" stroke-width="1.0" stroke-linecap="butt" d="M86.5 148.5L669.5 148.5" fill-rule="nonzero"/><path stroke="#cccccc" stroke-width="1.0" stroke-linecap="butt" d="M86.5 119.5L669.5 119.5" fill-rule="nonzero"/><path stroke="#cccccc" stroke-width="1.0" stroke-linecap="butt" d="M86.5 90.5L669.5 90.5" fill-rule="nonzero"/><path stroke="#cccccc" stroke-width="1.0" stroke-linecap="butt" d="M86.5 61.5L669.5 61.5" fill-rule="nonzero"/><path stroke="#000000" stroke-width="1.0" stroke-linecap="butt" d="M86.5 379.5L86.5 61.5" fill-rule="nonzero"/><clipPath id="id_0"><path d="M86.4 61.166668L669.6 61.166668L669.6 379.6L86.4 379.6L86.4 61.166668Z" clip-rule="nonzero"/></clipPath><path fill="#38761d" clip-path="url(#id_0)" d="M97.7359 373.8103C97.7359 376.2956 95.72118 378.3103 93.2359 378.3103C90.75062 378.3103 88.7359 376.2956 88.7359 373.8103C88.7359 371.325 90.75062 369.3103 93.2359 369.3103C95.72118 369.3103 97.7359 371.325 97.7359 373.8103Z" fill-rule="nonzero"/><path fill="#38761d" clip-path="url(#id_0)" d="M114.99433 370.91547C114.99433 373.40073 112.979614 375.41547 110.49433 375.41547C108.00905 375.41547 105.99433 373.40073 105.99433 370.91547C105.99433 368.43018 108.00905 366.41547 110.49433 366.41547C112.979614 366.41547 114.99433 368.43018 114.99433 370.91547Z" fill-rule="nonzero"/><path fill="#38761d" clip-path="url(#id_0)" d="M132.25276 372.0734C132.25276 374.5587 130.23804 376.5734 127.75276 376.5734C125.26748 376.5734 123.25276 374.5587 123.25276 372.0734C123.25276 369.5881 125.26748 367.5734 127.75276 367.5734C130.23804 367.5734 132.25276 369.5881 132.25276 372.0734Z" fill-rule="nonzero"/><path fill="#38761d" clip-path="url(#id_0)" d="M149.51118 369.7575C149.51118 372.2428 147.49648 374.2575 145.01118 374.2575C142.52591 374.2575 140.51118 372.2428 140.51118 369.7575C140.51118 367.27225 142.52591 365.2575 145.01118 365.2575C147.49648 365.2575 149.51118 367.27225 149.51118 369.7575Z" fill-rule="nonzero"/><path fill="#38761d" clip-path="url(#id_0)" d="M166.76962 362.80988C166.76962 365.29517 164.7549 367.30988 162.26962 367.30988C159.78435 367.30988 157.76962 365.29517 157.76962 362.80988C157.76962 360.3246 159.78435 358.30988 162.26962 358.30988C164.7549 358.30988 166.76962 360.3246 166.76962 362.80988Z" fill-rule="nonzero"/><path fill="#38761d" clip-path="url(#id_0)" d="M184.02805 363.9678C184.02805 366.4531 182.01334 368.4678 179.52805 368.4678C177.04277 368.4678 175.02805 366.4531 175.02805 363.9678C175.02805 361.48254 177.04277 359.4678 179.52805 359.4678C182.01334 359.4678 184.02805 361.48254 184.02805 363.9678Z" fill-rule="nonzero"/><path fill="#38761d" clip-path="url(#id_0)" d="M201.28648 363.38885C201.28648 365.8741 199.27176 367.88885 196.78648 367.88885C194.30121 367.88885 192.28648 365.8741 192.28648 363.38885C192.28648 360.90356 194.30121 358.88885 196.78648 358.88885C199.27176 358.88885 201.28648 360.90356 201.28648 363.38885Z" fill-rule="nonzero"/><path fill="#38761d" clip-path="url(#id_0)" d="M218.5449 367.44165C218.5449 369.9269 216.5302 371.94165 214.0449 371.94165C211.55963 371.94165 209.5449 369.9269 209.5449 367.44165C209.5449 364.95636 211.55963 362.94165 214.0449 362.94165C216.5302 362.94165 218.5449 364.95636 218.5449 367.44165Z" fill-rule="nonzero"/><path fill="#38761d" clip-path="url(#id_0)" d="M235.80334 361.07297C235.80334 363.55826 233.78862 365.57297 231.30334 365.57297C228.81805 365.57297 226.80334 363.55826 226.80334 361.07297C226.80334 358.58768 228.81805 356.57297 231.30334 356.57297C233.78862 356.57297 235.80334 358.58768 235.80334 361.07297Z" fill-rule="nonzero"/><path fill="#38761d" clip-path="url(#id_0)" d="M253.06177 362.80988C253.06177 365.29517 251.04706 367.30988 248.56177 367.30988C246.07649 367.30988 244.06177 365.29517 244.06177 362.80988C244.06177 360.3246 246.07649 358.30988 248.56177 358.30988C251.04706 358.30988 253.06177 360.3246 253.06177 362.80988Z" fill-rule="nonzero"/><path fill="#38761d" clip-path="url(#id_0)" d="M270.3202 90.69412C270.3202 93.179405 268.30548 95.19412 265.8202 95.19412C263.33493 95.19412 261.3202 93.179405 261.3202 90.69412C261.3202 88.20884 263.33493 86.19412 265.8202 86.19412C268.30548 86.19412 270.3202 88.20884 270.3202 90.69412Z" fill-rule="nonzero"/><path fill="#38761d" clip-path="url(#id_0)" d="M287.57864 289.28073C287.57864 291.76602 285.5639 293.78073 283.07864 293.78073C280.59335 293.78073 278.57864 291.76602 278.57864 289.28073C278.57864 286.79544 280.59335 284.78073 283.07864 284.78073C285.5639 284.78073 287.57864 286.79544 287.57864 289.28073Z" fill-rule="nonzero"/><path fill="#38761d" clip-path="url(#id_0)" d="M304.83707 293.91248C304.83707 296.39777 302.82236 298.41248 300.33707 298.41248C297.85178 298.41248 295.83707 296.39777 295.83707 293.91248C295.83707 291.42722 297.85178 289.41248 300.33707 289.41248C302.82236 289.41248 304.83707 291.42722 304.83707 293.91248Z" fill-rule="nonzero"/><path fill="#38761d" clip-path="url(#id_0)" d="M322.0955 288.1228C322.0955 290.60806 320.08078 292.6228 317.5955 292.6228C315.1102 292.6228 313.0955 290.60806 313.0955 288.1228C313.0955 285.6375 315.1102 283.6228 317.5955 283.6228C320.08078 283.6228 322.0955 285.6375 322.0955 288.1228Z" fill-rule="nonzero"/><path fill="#38761d" clip-path="url(#id_0)" d="M339.3539 299.70218C339.3539 302.18747 337.3392 304.20218 334.8539 304.20218C332.36865 304.20218 330.3539 302.18747 330.3539 299.70218C330.3539 297.2169 332.36865 295.20218 334.8539 295.20218C337.3392 295.20218 339.3539 297.2169 339.3539 299.70218Z" fill-rule="nonzero"/><path fill="#38761d" clip-path="url(#id_0)" d="M356.61237 289.28073C356.61237 291.76602 354.59763 293.78073 352.11237 293.78073C349.62708 293.78073 347.61237 291.76602 347.61237 289.28073C347.61237 286.79544 349.62708 284.78073 352.11237 284.78073C354.59763 284.78073 356.61237 286.79544 356.61237 289.28073Z" fill-rule="nonzero"/><path fill="#38761d" clip-path="url(#id_0)" d="M373.8708 313.0185C373.8708 315.50375 371.85608 317.5185 369.3708 317.5185C366.8855 317.5185 364.8708 315.50375 364.8708 313.0185C364.8708 310.5332 366.8855 308.5185 369.3708 308.5185C371.85608 308.5185 373.8708 310.5332 373.8708 313.0185Z" fill-rule="nonzero"/><path fill="#38761d" clip-path="url(#id_0)" d="M391.1292 318.8082C391.1292 321.29346 389.1145 323.3082 386.6292 323.3082C384.14392 323.3082 382.1292 321.29346 382.1292 318.8082C382.1292 316.3229 384.14392 314.3082 386.6292 314.3082C389.1145 314.3082 391.1292 316.3229 391.1292 318.8082Z" fill-rule="nonzero"/><path fill="#38761d" clip-path="url(#id_0)" d="M408.38763 317.65024C408.38763 320.13553 406.37292 322.15024 403.88763 322.15024C401.40237 322.15024 399.38763 320.13553 399.38763 317.65024C399.38763 315.16495 401.40237 313.15024 403.88763 313.15024C406.37292 313.15024 408.38763 315.16495 408.38763 317.65024Z" fill-rule="nonzero"/><path fill="#38761d" clip-path="url(#id_0)" d="M425.6461 286.96484C425.6461 289.45013 423.63135 291.46484 421.1461 291.46484C418.6608 291.46484 416.6461 289.45013 416.6461 286.96484C416.6461 284.47955 418.6608 282.46484 421.1461 282.46484C423.63135 282.46484 425.6461 284.47955 425.6461 286.96484Z" fill-rule="nonzero"/><path fill="#38761d" clip-path="url(#id_0)" d="M442.9045 285.80692C442.9045 288.29218 440.8898 290.30692 438.4045 290.30692C435.91922 290.30692 433.9045 288.29218 433.9045 285.80692C433.9045 283.32162 435.91922 281.30692 438.4045 281.30692C440.8898 281.30692 442.9045 283.32162 442.9045 285.80692Z" fill-rule="nonzero"/><path fill="#38761d" clip-path="url(#id_0)" d="M460.16293 293.91248C460.16293 296.39777 458.14822 298.41248 455.66293 298.41248C453.17764 298.41248 451.16293 296.39777 451.16293 293.91248C451.16293 291.42722 453.17764 289.41248 455.66293 289.41248C458.14822 289.41248 460.16293 291.42722 460.16293 293.91248Z" fill-rule="nonzero"/><path fill="#38761d" clip-path="url(#id_0)" d="M477.42136 299.70218C477.42136 302.18747 475.40665 304.20218 472.92136 304.20218C470.4361 304.20218 468.42136 302.18747 468.42136 299.70218C468.42136 297.2169 470.4361 295.20218 472.92136 295.20218C475.40665 295.20218 477.42136 297.2169 477.42136 299.70218Z" fill-rule="nonzero"/><path fill="#38761d" clip-path="url(#id_0)" d="M494.6798 289.28073C494.6798 291.76602 492.66507 293.78073 490.1798 293.78073C487.69452 293.78073 485.6798 291.76602 485.6798 289.28073C485.6798 286.79544 487.69452 284.78073 490.1798 284.78073C492.66507 284.78073 494.6798 286.79544 494.6798 289.28073Z" fill-rule="nonzero"/><path fill="#38761d" clip-path="url(#id_0)" d="M511.93823 230.22581C511.93823 232.7111 509.92352 234.72581 507.43823 234.72581C504.95294 234.72581 502.93823 232.7111 502.93823 230.22581C502.93823 227.74054 504.95294 225.72581 507.43823 225.72581C509.92352 225.72581 511.93823 227.74054 511.93823 230.22581Z" fill-rule="nonzero"/><path fill="#38761d" clip-path="url(#id_0)" d="M529.19666 200.1194C529.19666 202.60468 527.18195 204.6194 524.69666 204.6194C522.21136 204.6194 520.19666 202.60468 520.19666 200.1194C520.19666 197.63411 522.21136 195.6194 524.69666 195.6194C527.18195 195.6194 529.19666 197.63411 529.19666 200.1194Z" fill-rule="nonzero"/><path fill="#38761d" clip-path="url(#id_0)" d="M546.4551 218.64642C546.4551 221.1317 544.44037 223.14642 541.9551 223.14642C539.4698 223.14642 537.4551 221.1317 537.4551 218.64642C537.4551 216.16115 539.4698 214.14642 541.9551 214.14642C544.44037 214.14642 546.4551 216.16115 546.4551 218.64642Z" fill-rule="nonzero"/><path fill="#38761d" clip-path="url(#id_0)" d="M563.7135 268.4378C563.7135 270.9231 561.6988 272.9378 559.2135 272.9378C556.7282 272.9378 554.7135 270.9231 554.7135 268.4378C554.7135 265.95255 556.7282 263.9378 559.2135 263.9378C561.6988 263.9378 563.7135 265.95255 563.7135 268.4378Z" fill-rule="nonzero"/><path fill="#38761d" clip-path="url(#id_0)" d="M580.9719 272.4906C580.9719 274.9759 578.9572 276.9906 576.4719 276.9906C573.9867 276.9906 571.9719 274.9759 571.9719 272.4906C571.9719 270.0053 573.9867 267.9906 576.4719 267.9906C578.9572 267.9906 580.9719 270.0053 580.9719 272.4906Z" fill-rule="nonzero"/><path fill="#38761d" clip-path="url(#id_0)" d="M598.2304 304.33395C598.2304 306.8192 596.21564 308.83395 593.7304 308.83395C591.2451 308.83395 589.2304 306.8192 589.2304 304.33395C589.2304 301.84866 591.2451 299.83395 593.7304 299.83395C596.21564 299.83395 598.2304 301.84866 598.2304 304.33395Z" fill-rule="nonzero"/><path fill="#38761d" clip-path="url(#id_0)" d="M615.48883 290.43866C615.48883 292.92395 613.47406 294.93866 610.98883 294.93866C608.50354 294.93866 606.48883 292.92395 606.48883 290.43866C606.48883 287.9534 608.50354 285.93866 610.98883 285.93866C613.47406 285.93866 615.48883 287.9534 615.48883 290.43866Z" fill-rule="nonzero"/><path fill="#38761d" clip-path="url(#id_0)" d="M632.74725 288.1228C632.74725 290.60806 630.73254 292.6228 628.24725 292.6228C625.76196 292.6228 623.74725 290.60806 623.74725 288.1228C623.74725 285.6375 625.76196 283.6228 628.24725 283.6228C630.73254 283.6228 632.74725 285.6375 632.74725 288.1228Z" fill-rule="nonzero"/><path fill="#38761d" clip-path="url(#id_0)" d="M650.0057 234.27861C650.0057 236.76389 647.99097 238.77861 645.5057 238.77861C643.0204 238.77861 641.0057 236.76389 641.0057 234.27861C641.0057 231.79332 643.0204 229.77861 645.5057 229.77861C647.99097 229.77861 650.0057 231.79332 650.0057 234.27861Z" fill-rule="nonzero"/><path fill="#38761d" clip-path="url(#id_0)" d="M667.2641 247.59491C667.2641 250.08018 665.2494 252.09491 662.7641 252.09491C660.2788 252.09491 658.2641 250.08018 658.2641 247.59491C658.2641 245.10963 660.2788 243.09491 662.7641 243.09491C665.2494 243.09491 667.2641 245.10963 667.2641 247.59491Z" fill-rule="nonzero"/><path fill="#000000" d="M36.400005 269.85208L24.94688 269.85208L24.94688 268.33646L29.650005 268.33646L29.650005 262.38333L24.94688 262.38333L24.94688 260.8677L36.400005 260.8677L36.400005 262.38333L30.993755 262.38333L30.993755 268.33646L36.400005 268.33646L36.400005 269.85208ZM35.368755 253.66458Q36.04063 254.44583 36.32188 255.16458Q36.587505 255.88333 36.587505 256.71146Q36.587505 258.08646 35.91563 258.82083Q35.243755 259.5552 34.212505 259.5552Q33.60313 259.5552 33.10313 259.27396Q32.587505 258.9927 32.29063 258.5552Q31.97813 258.10208 31.82188 257.53958Q31.712505 257.1177 31.618755 256.28958Q31.41563 254.58646 31.13438 253.77396Q30.837505 253.77396 30.75938 253.77396Q29.900005 253.77396 29.556255 254.16458Q29.07188 254.71146 29.07188 255.77396Q29.07188 256.75833 29.431255 257.2427Q29.775005 257.71146 30.650005 257.9302L30.462505 259.3052Q29.587505 259.1177 29.04063 258.69583Q28.493755 258.25833 28.212505 257.44583Q27.91563 256.63333 27.91563 255.57083Q27.91563 254.50833 28.16563 253.85208Q28.41563 253.1802 28.79063 252.8677Q29.16563 252.5552 29.743755 252.4302Q30.10313 252.35208 31.04063 252.35208L32.91563 252.35208Q34.88438 252.35208 35.400005 252.27396Q35.91563 252.1802 36.400005 251.91458L36.400005 253.38333Q35.962505 253.60208 35.368755 253.66458ZM32.22813 253.77396Q32.54063 254.53958 32.75938 256.07083Q32.88438 256.94583 33.04063 257.3052Q33.19688 257.66458 33.50938 257.8677Q33.806255 258.0552 34.16563 258.0552Q34.72813 258.0552 35.10313 257.63333Q35.47813 257.19583 35.47813 256.38333Q35.47813 255.57083 35.13438 254.94583Q34.775005 254.3052 34.150005 254.00833Q33.681255 253.77396 32.743755 253.77396L32.22813 253.77396ZM35.13438 247.00833L36.38438 246.8052Q36.50938 247.39896 36.50938 247.8677Q36.50938 248.63333 36.275005 249.0552Q36.025005 249.47708 35.63438 249.64896Q35.22813 249.82083 33.962505 249.82083L29.19688 249.82083L29.19688 250.85208L28.10313 250.85208L28.10313 249.82083L26.04063 249.82083L25.19688 248.41458L28.10313 248.41458L28.10313 247.00833L29.19688 247.00833L29.19688 248.41458L34.04063 248.41458Q34.650005 248.41458 34.82188 248.35208Q34.993755 248.27396 35.10313 248.10208Q35.19688 247.9302 35.19688 247.6177Q35.19688 247.38333 35.13438 247.00833ZM33.72813 240.39896L33.900005 238.94583Q35.181255 239.28958 35.88438 240.22708Q36.587505 241.14896 36.587505 242.58646Q36.587505 244.41458 35.462505 245.47708Q34.337505 246.53958 32.32188 246.53958Q30.22813 246.53958 29.07188 245.46146Q27.91563 244.38333 27.91563 242.66458Q27.91563 241.00833 29.056255 239.96146Q30.181255 238.89896 32.22813 238.89896Q32.35313 238.89896 32.60313 238.89896L32.60313 245.08646Q33.97813 245.00833 34.712505 244.32083Q35.431255 243.6177 35.431255 242.58646Q35.431255 241.8052 35.025005 241.25833Q34.618755 240.71146 33.72813 240.39896ZM31.44688 245.00833L31.44688 240.38333Q30.400005 240.47708 29.88438 240.91458Q29.07188 241.58646 29.07188 242.64896Q29.07188 243.6177 29.72813 244.28958Q30.368755 244.94583 31.44688 245.00833ZM32.38438 224.72708L32.75938 223.21146Q34.63438 223.6802 35.618755 224.9302Q36.60313 226.16458 36.60313 227.94583Q36.60313 229.8052 35.85313 230.96146Q35.087505 232.1177 33.66563 232.72708Q32.22813 233.33646 30.587505 233.33646Q28.79063 233.33646 27.462505 232.64896Q26.13438 231.96146 25.44688 230.71146Q24.743755 229.44583 24.743755 227.9302Q24.743755 226.21146 25.618755 225.03958Q26.493755 223.8677 28.087505 223.39896L28.431255 224.89896Q27.181255 225.28958 26.618755 226.0552Q26.04063 226.8052 26.04063 227.96146Q26.04063 229.27396 26.681255 230.16458Q27.306255 231.0552 28.38438 231.41458Q29.44688 231.77396 30.57188 231.77396Q32.04063 231.77396 33.13438 231.35208Q34.212505 230.91458 34.75938 230.02396Q35.29063 229.1177 35.29063 228.07083Q35.29063 226.8052 34.556255 225.9302Q33.82188 225.03958 32.38438 224.72708ZM36.400005 221.08646L28.10313 221.08646L28.10313 219.82083L29.35313 219.82083Q28.47813 219.33646 28.19688 218.9302Q27.91563 218.52396 27.91563 218.02396Q27.91563 217.32083 28.368755 216.58646L29.66563 217.07083Q29.368755 217.58646 29.368755 218.10208Q29.368755 218.5552 29.650005 218.9302Q29.91563 219.28958 30.41563 219.44583Q31.16563 219.6802 32.056255 219.6802L36.400005 219.6802L36.400005 221.08646ZM26.556255 216.07083L24.94688 216.07083L24.94688 214.66458L26.556255 214.66458L26.556255 216.07083ZM36.400005 216.07083L28.10313 216.07083L28.10313 214.66458L36.400005 214.66458L36.400005 216.07083ZM36.400005 212.07083L28.10313 212.07083L28.10313 210.82083L29.25938 210.82083Q28.650005 210.4302 28.29063 209.78958Q27.91563 209.13333 27.91563 208.3052Q27.91563 207.38333 28.306255 206.78958Q28.681255 206.19583 29.368755 205.96146Q27.91563 204.97708 27.91563 203.39896Q27.91563 202.16458 28.60313 201.50833Q29.275005 200.83646 30.69688 200.83646L36.400005 200.83646L36.400005 202.22708L31.16563 202.22708Q30.32188 202.22708 29.962505 202.3677Q29.587505 202.50833 29.368755 202.8677Q29.13438 203.22708 29.13438 203.71146Q29.13438 204.58646 29.712505 205.16458Q30.29063 205.7427 31.57188 205.7427L36.400005 205.7427L36.400005 207.14896L31.00938 207.14896Q30.07188 207.14896 29.60313 207.4927Q29.13438 207.83646 29.13438 208.6177Q29.13438 209.21146 29.44688 209.71146Q29.75938 210.21146 30.368755 210.44583Q30.962505 210.66458 32.087505 210.66458L36.400005 210.66458L36.400005 212.07083ZM33.72813 193.39896L33.900005 191.94583Q35.181255 192.28958 35.88438 193.22708Q36.587505 194.14896 36.587505 195.58646Q36.587505 197.41458 35.462505 198.47708Q34.337505 199.53958 32.32188 199.53958Q30.22813 199.53958 29.07188 198.46146Q27.91563 197.38333 27.91563 195.66458Q27.91563 194.00833 29.056255 192.96146Q30.181255 191.89896 32.22813 191.89896Q32.35313 191.89896 32.60313 191.89896L32.60313 198.08646Q33.97813 198.00833 34.712505 197.32083Q35.431255 196.6177 35.431255 195.58646Q35.431255 194.8052 35.025005 194.25833Q34.618755 193.71146 33.72813 193.39896ZM31.44688 198.00833L31.44688 193.38333Q30.400005 193.47708 29.88438 193.91458Q29.07188 194.58646 29.07188 195.64896Q29.07188 196.6177 29.72813 197.28958Q30.368755 197.94583 31.44688 198.00833ZM33.91563 190.63333L33.69688 189.2427Q34.54063 189.13333 34.993755 188.60208Q35.431255 188.0552 35.431255 187.10208Q35.431255 186.13333 35.04063 185.66458Q34.63438 185.19583 34.10313 185.19583Q33.63438 185.19583 33.35313 185.60208Q33.16563 185.89896 32.88438 187.03958Q32.493755 188.58646 32.212505 189.19583Q31.91563 189.78958 31.41563 190.10208Q30.91563 190.39896 30.306255 190.39896Q29.743755 190.39896 29.275005 190.14896Q28.806255 189.89896 28.493755 189.46146Q28.243755 189.13333 28.087505 188.57083Q27.91563 187.9927 27.91563 187.35208Q27.91563 186.3677 28.19688 185.63333Q28.47813 184.89896 28.962505 184.5552Q29.431255 184.19583 30.243755 184.0552L30.431255 185.4302Q29.79063 185.52396 29.431255 185.97708Q29.07188 186.4302 29.07188 187.2427Q29.07188 188.21146 29.400005 188.63333Q29.712505 189.03958 30.13438 189.03958Q30.41563 189.03958 30.63438 188.8677Q30.85313 188.69583 31.00938 188.33646Q31.087505 188.1177 31.368755 187.08646Q31.75938 185.60208 32.025005 185.00833Q32.275005 184.41458 32.75938 184.08646Q33.243755 183.7427 33.962505 183.7427Q34.66563 183.7427 35.29063 184.16458Q35.900005 184.57083 36.243755 185.35208Q36.587505 186.1177 36.587505 187.08646Q36.587505 188.71146 35.91563 189.5552Q35.243755 190.39896 33.91563 190.63333Z" fill-rule="nonzero"/><path fill="#000000" d="M70.07188 379.44376Q70.07188 377.4125 70.47813 376.17813Q70.9 374.94376 71.72813 374.27188Q72.55625 373.6 73.80625 373.6Q74.72813 373.6 75.41563 373.975Q76.11875 374.33438 76.57188 375.0375Q77.025 375.74063 77.275 376.74063Q77.54063 377.74063 77.54063 379.44376Q77.54063 381.45938 77.11875 382.70938Q76.7125 383.94376 75.88438 384.63126Q75.05625 385.30313 73.80625 385.30313Q72.15 385.30313 71.19688 384.1Q70.07188 382.67813 70.07188 379.44376ZM71.50938 379.44376Q71.50938 382.27188 72.16563 383.20938Q72.8375 384.13126 73.80625 384.13126Q74.775 384.13126 75.43125 383.19376Q76.0875 382.25626 76.0875 379.44376Q76.0875 376.61563 75.43125 375.69376Q74.775 374.75626 73.79063 374.75626Q72.82188 374.75626 72.24375 375.58438Q71.50938 376.63126 71.50938 379.44376Z" fill-rule="nonzero"/><path fill="#000000" d="M61.071877 353.15152L62.540627 353.02652Q62.7125 354.10464 63.30625 354.65152Q63.9 355.18277 64.74375 355.18277Q65.75938 355.18277 66.4625 354.41714Q67.16563 353.65152 67.16563 352.3859Q67.16563 351.18277 66.49375 350.49527Q65.82188 349.79214 64.72813 349.79214Q64.04063 349.79214 63.49375 350.10464Q62.946877 350.41714 62.634377 350.90152L61.321877 350.72964L62.43125 344.85464L68.11875 344.85464L68.11875 346.1984L63.55625 346.1984L62.93125 349.27652Q63.9625 348.55777 65.10313 348.55777Q66.60313 348.55777 67.63438 349.60464Q68.66563 350.6359 68.66563 352.2609Q68.66563 353.8234 67.75938 354.9484Q66.65 356.35464 64.74375 356.35464Q63.18125 356.35464 62.196877 355.47964Q61.2125 354.58902 61.071877 353.15152ZM70.07188 350.49527Q70.07188 348.46402 70.47813 347.22964Q70.9 345.99527 71.72813 345.3234Q72.55625 344.65152 73.80625 344.65152Q74.72813 344.65152 75.41563 345.02652Q76.11875 345.3859 76.57188 346.08902Q77.025 346.79214 77.275 347.79214Q77.54063 348.79214 77.54063 350.49527Q77.54063 352.5109 77.11875 353.7609Q76.7125 354.99527 75.88438 355.68277Q75.05625 356.35464 73.80625 356.35464Q72.15 356.35464 71.19688 355.15152Q70.07188 353.72964 70.07188 350.49527ZM71.50938 350.49527Q71.50938 353.3234 72.16563 354.2609Q72.8375 355.18277 73.80625 355.18277Q74.775 355.18277 75.43125 354.24527Q76.0875 353.30777 76.0875 350.49527Q76.0875 347.66714 75.43125 346.74527Q74.775 345.80777 73.79063 345.80777Q72.82188 345.80777 72.24375 346.6359Q71.50938 347.68277 71.50938 350.49527Z" fill-rule="nonzero"/><path fill="#000000" d="M57.36875 327.20303L55.9625 327.20303L55.9625 318.23428Q55.446877 318.71866 54.61875 319.20303Q53.80625 319.6874 53.15 319.9374L53.15 318.57803Q54.321877 318.01553 55.196877 317.23428Q56.0875 316.4374 56.4625 315.70303L57.36875 315.70303L57.36875 327.20303ZM61.071877 321.54678Q61.071877 319.51553 61.478127 318.28116Q61.9 317.04678 62.728127 316.3749Q63.55625 315.70303 64.80625 315.70303Q65.72813 315.70303 66.41563 316.07803Q67.11875 316.4374 67.57188 317.14053Q68.025 317.84366 68.275 318.84366Q68.54063 319.84366 68.54063 321.54678Q68.54063 323.5624 68.11875 324.8124Q67.7125 326.04678 66.88438 326.73428Q66.05625 327.40616 64.80625 327.40616Q63.15 327.40616 62.196877 326.20303Q61.071877 324.78116 61.071877 321.54678ZM62.509377 321.54678Q62.509377 324.3749 63.165627 325.3124Q63.8375 326.23428 64.80625 326.23428Q65.775 326.23428 66.43125 325.29678Q67.0875 324.35928 67.0875 321.54678Q67.0875 318.71866 66.43125 317.79678Q65.775 316.85928 64.79063 316.85928Q63.821877 316.85928 63.24375 317.6874Q62.509377 318.73428 62.509377 321.54678ZM70.07188 321.54678Q70.07188 319.51553 70.47813 318.28116Q70.9 317.04678 71.72813 316.3749Q72.55625 315.70303 73.80625 315.70303Q74.72813 315.70303 75.41563 316.07803Q76.11875 316.4374 76.57188 317.14053Q77.025 317.84366 77.275 318.84366Q77.54063 319.84366 77.54063 321.54678Q77.54063 323.5624 77.11875 324.8124Q76.7125 326.04678 75.88438 326.73428Q75.05625 327.40616 73.80625 327.40616Q72.15 327.40616 71.19688 326.20303Q70.07188 324.78116 70.07188 321.54678ZM71.50938 321.54678Q71.50938 324.3749 72.16563 325.3124Q72.8375 326.23428 73.80625 326.23428Q74.775 326.23428 75.43125 325.29678Q76.0875 324.35928 76.0875 321.54678Q76.0875 318.71866 75.43125 317.79678Q74.775 316.85928 73.79063 316.85928Q72.82188 316.85928 72.24375 317.6874Q71.50938 318.73428 71.50938 321.54678Z" fill-rule="nonzero"/><path fill="#000000" d="M57.36875 298.25455L55.9625 298.25455L55.9625 289.2858Q55.446877 289.77017 54.61875 290.25455Q53.80625 290.73892 53.15 290.98892L53.15 289.62955Q54.321877 289.06705 55.196877 288.2858Q56.0875 287.48892 56.4625 286.75455L57.36875 286.75455L57.36875 298.25455ZM61.071877 295.25455L62.540627 295.12955Q62.7125 296.20767 63.30625 296.75455Q63.9 297.2858 64.74375 297.2858Q65.75938 297.2858 66.4625 296.52017Q67.16563 295.75455 67.16563 294.48892Q67.16563 293.2858 66.49375 292.5983Q65.82188 291.89517 64.72813 291.89517Q64.04063 291.89517 63.49375 292.20767Q62.946877 292.52017 62.634377 293.00455L61.321877 292.83267L62.43125 286.95767L68.11875 286.95767L68.11875 288.30142L63.55625 288.30142L62.93125 291.37955Q63.9625 290.6608 65.10313 290.6608Q66.60313 290.6608 67.63438 291.70767Q68.66563 292.73892 68.66563 294.36392Q68.66563 295.92642 67.75938 297.05142Q66.65 298.45767 64.74375 298.45767Q63.18125 298.45767 62.196877 297.58267Q61.2125 296.69205 61.071877 295.25455ZM70.07188 292.5983Q70.07188 290.56705 70.47813 289.33267Q70.9 288.0983 71.72813 287.42642Q72.55625 286.75455 73.80625 286.75455Q74.72813 286.75455 75.41563 287.12955Q76.11875 287.48892 76.57188 288.19205Q77.025 288.89517 77.275 289.89517Q77.54063 290.89517 77.54063 292.5983Q77.54063 294.61392 77.11875 295.86392Q76.7125 297.0983 75.88438 297.7858Q75.05625 298.45767 73.80625 298.45767Q72.15 298.45767 71.19688 297.25455Q70.07188 295.83267 70.07188 292.5983ZM71.50938 292.5983Q71.50938 295.42642 72.16563 296.36392Q72.8375 297.2858 73.80625 297.2858Q74.775 297.2858 75.43125 296.3483Q76.0875 295.4108 76.0875 292.5983Q76.0875 289.77017 75.43125 288.8483Q74.775 287.9108 73.79063 287.9108Q72.82188 287.9108 72.24375 288.73892Q71.50938 289.7858 71.50938 292.5983Z" fill-rule="nonzero"/><path fill="#000000" d="M59.4625 267.9467L59.4625 269.30606L51.884377 269.30606Q51.86875 268.79044 52.05625 268.3217Q52.3375 267.55606 52.978127 266.80606Q53.61875 266.05606 54.821877 265.0717Q56.68125 263.54044 57.3375 262.6498Q57.99375 261.74356 57.99375 260.9467Q57.99375 260.11856 57.4 259.54044Q56.80625 258.9623 55.8375 258.9623Q54.821877 258.9623 54.2125 259.5717Q53.603127 260.18106 53.603127 261.2592L52.15 261.11856Q52.30625 259.49356 53.275 258.6498Q54.24375 257.80606 55.86875 257.80606Q57.525 257.80606 58.478127 258.72794Q59.446877 259.6342 59.446877 260.97794Q59.446877 261.66544 59.165627 262.3373Q58.884377 262.99356 58.228127 263.72794Q57.571877 264.4623 56.05625 265.74356Q54.790627 266.80606 54.43125 267.1967Q54.071877 267.5717 53.8375 267.9467L59.4625 267.9467ZM61.071877 263.6498Q61.071877 261.61856 61.478127 260.3842Q61.9 259.1498 62.728127 258.47794Q63.55625 257.80606 64.80625 257.80606Q65.72813 257.80606 66.41563 258.18106Q67.11875 258.54044 67.57188 259.24356Q68.025 259.9467 68.275 260.9467Q68.54063 261.9467 68.54063 263.6498Q68.54063 265.66544 68.11875 266.91544Q67.7125 268.1498 66.88438 268.8373Q66.05625 269.5092 64.80625 269.5092Q63.15 269.5092 62.196877 268.30606Q61.071877 266.8842 61.071877 263.6498ZM62.509377 263.6498Q62.509377 266.47794 63.165627 267.41544Q63.8375 268.3373 64.80625 268.3373Q65.775 268.3373 66.43125 267.3998Q67.0875 266.4623 67.0875 263.6498Q67.0875 260.8217 66.43125 259.8998Q65.775 258.9623 64.79063 258.9623Q63.821877 258.9623 63.24375 259.79044Q62.509377 260.8373 62.509377 263.6498ZM70.07188 263.6498Q70.07188 261.61856 70.47813 260.3842Q70.9 259.1498 71.72813 258.47794Q72.55625 257.80606 73.80625 257.80606Q74.72813 257.80606 75.41563 258.18106Q76.11875 258.54044 76.57188 259.24356Q77.025 259.9467 77.275 260.9467Q77.54063 261.9467 77.54063 263.6498Q77.54063 265.66544 77.11875 266.91544Q76.7125 268.1498 75.88438 268.8373Q75.05625 269.5092 73.80625 269.5092Q72.15 269.5092 71.19688 268.30606Q70.07188 266.8842 70.07188 263.6498ZM71.50938 263.6498Q71.50938 266.47794 72.16563 267.41544Q72.8375 268.3373 73.80625 268.3373Q74.775 268.3373 75.43125 267.3998Q76.0875 266.4623 76.0875 263.6498Q76.0875 260.8217 75.43125 259.8998Q74.775 258.9623 73.79063 258.9623Q72.82188 258.9623 72.24375 259.79044Q71.50938 260.8373 71.50938 263.6498Z" fill-rule="nonzero"/><path fill="#000000" d="M59.4625 238.9982L59.4625 240.35757L51.884377 240.35757Q51.86875 239.84195 52.05625 239.3732Q52.3375 238.60757 52.978127 237.85757Q53.61875 237.10757 54.821877 236.1232Q56.68125 234.59195 57.3375 233.70132Q57.99375 232.79507 57.99375 231.9982Q57.99375 231.17007 57.4 230.59195Q56.80625 230.01382 55.8375 230.01382Q54.821877 230.01382 54.2125 230.6232Q53.603127 231.23257 53.603127 232.3107L52.15 232.17007Q52.30625 230.54507 53.275 229.70132Q54.24375 228.85757 55.86875 228.85757Q57.525 228.85757 58.478127 229.77945Q59.446877 230.6857 59.446877 232.02945Q59.446877 232.71695 59.165627 233.38882Q58.884377 234.04507 58.228127 234.77945Q57.571877 235.51382 56.05625 236.79507Q54.790627 237.85757 54.43125 238.2482Q54.071877 238.6232 53.8375 238.9982L59.4625 238.9982ZM61.071877 237.35757L62.540627 237.23257Q62.7125 238.3107 63.30625 238.85757Q63.9 239.38882 64.74375 239.38882Q65.75938 239.38882 66.4625 238.6232Q67.16563 237.85757 67.16563 236.59195Q67.16563 235.38882 66.49375 234.70132Q65.82188 233.9982 64.72813 233.9982Q64.04063 233.9982 63.49375 234.3107Q62.946877 234.6232 62.634377 235.10757L61.321877 234.9357L62.43125 229.0607L68.11875 229.0607L68.11875 230.40445L63.55625 230.40445L62.93125 233.48257Q63.9625 232.76382 65.10313 232.76382Q66.60313 232.76382 67.63438 233.8107Q68.66563 234.84195 68.66563 236.46695Q68.66563 238.02945 67.75938 239.15445Q66.65 240.5607 64.74375 240.5607Q63.18125 240.5607 62.196877 239.6857Q61.2125 238.79507 61.071877 237.35757ZM70.07188 234.70132Q70.07188 232.67007 70.47813 231.4357Q70.9 230.20132 71.72813 229.52945Q72.55625 228.85757 73.80625 228.85757Q74.72813 228.85757 75.41563 229.23257Q76.11875 229.59195 76.57188 230.29507Q77.025 230.9982 77.275 231.9982Q77.54063 232.9982 77.54063 234.70132Q77.54063 236.71695 77.11875 237.96695Q76.7125 239.20132 75.88438 239.88882Q75.05625 240.5607 73.80625 240.5607Q72.15 240.5607 71.19688 239.35757Q70.07188 237.9357 70.07188 234.70132ZM71.50938 234.70132Q71.50938 237.52945 72.16563 238.46695Q72.8375 239.38882 73.80625 239.38882Q74.775 239.38882 75.43125 238.45132Q76.0875 237.51382 76.0875 234.70132Q76.0875 231.8732 75.43125 230.95132Q74.775 230.01382 73.79063 230.01382Q72.82188 230.01382 72.24375 230.84195Q71.50938 231.88882 71.50938 234.70132Z" fill-rule="nonzero"/><path fill="#000000" d="M52.071877 208.37784L53.478127 208.19034Q53.728127 209.39346 54.30625 209.92471Q54.884377 210.44034 55.728127 210.44034Q56.7125 210.44034 57.4 209.75284Q58.0875 209.06534 58.0875 208.04971Q58.0875 207.08096 57.446877 206.45596Q56.821877 205.83096 55.8375 205.83096Q55.446877 205.83096 54.853127 205.98721L55.009377 204.75284Q55.15 204.76846 55.228127 204.76846Q56.134377 204.76846 56.853127 204.29971Q57.571877 203.83096 57.571877 202.84659Q57.571877 202.08096 57.040627 201.58096Q56.525 201.06534 55.696877 201.06534Q54.86875 201.06534 54.321877 201.58096Q53.775 202.09659 53.61875 203.12784L52.2125 202.87784Q52.478127 201.45596 53.384377 200.69034Q54.30625 199.90909 55.665627 199.90909Q56.603127 199.90909 57.384377 200.31534Q58.18125 200.70596 58.5875 201.40909Q59.009377 202.09659 59.009377 202.87784Q59.009377 203.62784 58.603127 204.23721Q58.2125 204.84659 57.43125 205.20596Q58.446877 205.44034 59.009377 206.17471Q59.571877 206.90909 59.571877 208.01846Q59.571877 209.51846 58.478127 210.56534Q57.384377 211.61221 55.7125 211.61221Q54.2125 211.61221 53.2125 210.72159Q52.2125 209.81534 52.071877 208.37784ZM61.071877 205.75284Q61.071877 203.72159 61.478127 202.48721Q61.9 201.25284 62.728127 200.58096Q63.55625 199.90909 64.80625 199.90909Q65.72813 199.90909 66.41563 200.28409Q67.11875 200.64346 67.57188 201.34659Q68.025 202.04971 68.275 203.04971Q68.54063 204.04971 68.54063 205.75284Q68.54063 207.76846 68.11875 209.01846Q67.7125 210.25284 66.88438 210.94034Q66.05625 211.61221 64.80625 211.61221Q63.15 211.61221 62.196877 210.40909Q61.071877 208.98721 61.071877 205.75284ZM62.509377 205.75284Q62.509377 208.58096 63.165627 209.51846Q63.8375 210.44034 64.80625 210.44034Q65.775 210.44034 66.43125 209.50284Q67.0875 208.56534 67.0875 205.75284Q67.0875 202.92471 66.43125 202.00284Q65.775 201.06534 64.79063 201.06534Q63.821877 201.06534 63.24375 201.89346Q62.509377 202.94034 62.509377 205.75284ZM70.07188 205.75284Q70.07188 203.72159 70.47813 202.48721Q70.9 201.25284 71.72813 200.58096Q72.55625 199.90909 73.80625 199.90909Q74.72813 199.90909 75.41563 200.28409Q76.11875 200.64346 76.57188 201.34659Q77.025 202.04971 77.275 203.04971Q77.54063 204.04971 77.54063 205.75284Q77.54063 207.76846 77.11875 209.01846Q76.7125 210.25284 75.88438 210.94034Q75.05625 211.61221 73.80625 211.61221Q72.15 211.61221 71.19688 210.40909Q70.07188 208.98721 70.07188 205.75284ZM71.50938 205.75284Q71.50938 208.58096 72.16563 209.51846Q72.8375 210.44034 73.80625 210.44034Q74.775 210.44034 75.43125 209.50284Q76.0875 208.56534 76.0875 205.75284Q76.0875 202.92471 75.43125 202.00284Q74.775 201.06534 73.79063 201.06534Q72.82188 201.06534 72.24375 201.89346Q71.50938 202.94034 71.50938 205.75284Z" fill-rule="nonzero"/><path fill="#000000" d="M52.071877 179.42935L53.478127 179.24185Q53.728127 180.44498 54.30625 180.97623Q54.884377 181.49185 55.728127 181.49185Q56.7125 181.49185 57.4 180.80435Q58.0875 180.11685 58.0875 179.10123Q58.0875 178.13248 57.446877 177.50748Q56.821877 176.88248 55.8375 176.88248Q55.446877 176.88248 54.853127 177.03873L55.009377 175.80435Q55.15 175.81998 55.228127 175.81998Q56.134377 175.81998 56.853127 175.35123Q57.571877 174.88248 57.571877 173.8981Q57.571877 173.13248 57.040627 172.63248Q56.525 172.11685 55.696877 172.11685Q54.86875 172.11685 54.321877 172.63248Q53.775 173.1481 53.61875 174.17935L52.2125 173.92935Q52.478127 172.50748 53.384377 171.74185Q54.30625 170.9606 55.665627 170.9606Q56.603127 170.9606 57.384377 171.36685Q58.18125 171.75748 58.5875 172.4606Q59.009377 173.1481 59.009377 173.92935Q59.009377 174.67935 58.603127 175.28873Q58.2125 175.8981 57.43125 176.25748Q58.446877 176.49185 59.009377 177.22623Q59.571877 177.9606 59.571877 179.06998Q59.571877 180.56998 58.478127 181.61685Q57.384377 182.66373 55.7125 182.66373Q54.2125 182.66373 53.2125 181.7731Q52.2125 180.86685 52.071877 179.42935ZM61.071877 179.4606L62.540627 179.3356Q62.7125 180.41373 63.30625 180.9606Q63.9 181.49185 64.74375 181.49185Q65.75938 181.49185 66.4625 180.72623Q67.16563 179.9606 67.16563 178.69498Q67.16563 177.49185 66.49375 176.80435Q65.82188 176.10123 64.72813 176.10123Q64.04063 176.10123 63.49375 176.41373Q62.946877 176.72623 62.634377 177.2106L61.321877 177.03873L62.43125 171.16373L68.11875 171.16373L68.11875 172.50748L63.55625 172.50748L62.93125 175.5856Q63.9625 174.86685 65.10313 174.86685Q66.60313 174.86685 67.63438 175.91373Q68.66563 176.94498 68.66563 178.56998Q68.66563 180.13248 67.75938 181.25748Q66.65 182.66373 64.74375 182.66373Q63.18125 182.66373 62.196877 181.78873Q61.2125 180.8981 61.071877 179.4606ZM70.07188 176.80435Q70.07188 174.7731 70.47813 173.53873Q70.9 172.30435 71.72813 171.63248Q72.55625 170.9606 73.80625 170.9606Q74.72813 170.9606 75.41563 171.3356Q76.11875 171.69498 76.57188 172.3981Q77.025 173.10123 77.275 174.10123Q77.54063 175.10123 77.54063 176.80435Q77.54063 178.81998 77.11875 180.06998Q76.7125 181.30435 75.88438 181.99185Q75.05625 182.66373 73.80625 182.66373Q72.15 182.66373 71.19688 181.4606Q70.07188 180.03873 70.07188 176.80435ZM71.50938 176.80435Q71.50938 179.63248 72.16563 180.56998Q72.8375 181.49185 73.80625 181.49185Q74.775 181.49185 75.43125 180.55435Q76.0875 179.61685 76.0875 176.80435Q76.0875 173.97623 75.43125 173.05435Q74.775 172.11685 73.79063 172.11685Q72.82188 172.11685 72.24375 172.94498Q71.50938 173.99185 71.50938 176.80435Z" fill-rule="nonzero"/><path fill="#000000" d="M56.571877 153.51212L56.571877 150.76212L51.603127 150.76212L51.603127 149.48087L56.8375 142.05899L57.978127 142.05899L57.978127 149.48087L59.525 149.48087L59.525 150.76212L57.978127 150.76212L57.978127 153.51212L56.571877 153.51212ZM56.571877 149.48087L56.571877 144.30899L52.99375 149.48087L56.571877 149.48087ZM61.071877 147.85587Q61.071877 145.82462 61.478127 144.59024Q61.9 143.35587 62.728127 142.68399Q63.55625 142.01212 64.80625 142.01212Q65.72813 142.01212 66.41563 142.38712Q67.11875 142.74649 67.57188 143.44962Q68.025 144.15274 68.275 145.15274Q68.54063 146.15274 68.54063 147.85587Q68.54063 149.87149 68.11875 151.12149Q67.7125 152.35587 66.88438 153.04337Q66.05625 153.71524 64.80625 153.71524Q63.15 153.71524 62.196877 152.51212Q61.071877 151.09024 61.071877 147.85587ZM62.509377 147.85587Q62.509377 150.68399 63.165627 151.62149Q63.8375 152.54337 64.80625 152.54337Q65.775 152.54337 66.43125 151.60587Q67.0875 150.66837 67.0875 147.85587Q67.0875 145.02774 66.43125 144.10587Q65.775 143.16837 64.79063 143.16837Q63.821877 143.16837 63.24375 143.99649Q62.509377 145.04337 62.509377 147.85587ZM70.07188 147.85587Q70.07188 145.82462 70.47813 144.59024Q70.9 143.35587 71.72813 142.68399Q72.55625 142.01212 73.80625 142.01212Q74.72813 142.01212 75.41563 142.38712Q76.11875 142.74649 76.57188 143.44962Q77.025 144.15274 77.275 145.15274Q77.54063 146.15274 77.54063 147.85587Q77.54063 149.87149 77.11875 151.12149Q76.7125 152.35587 75.88438 153.04337Q75.05625 153.71524 73.80625 153.71524Q72.15 153.71524 71.19688 152.51212Q70.07188 151.09024 70.07188 147.85587ZM71.50938 147.85587Q71.50938 150.68399 72.16563 151.62149Q72.8375 152.54337 73.80625 152.54337Q74.775 152.54337 75.43125 151.60587Q76.0875 150.66837 76.0875 147.85587Q76.0875 145.02774 75.43125 144.10587Q74.775 143.16837 73.79063 143.16837Q72.82188 143.16837 72.24375 143.99649Q71.50938 145.04337 71.50938 147.85587Z" fill-rule="nonzero"/><path fill="#000000" d="M56.571877 124.56364L56.571877 121.81364L51.603127 121.81364L51.603127 120.53239L56.8375 113.11051L57.978127 113.11051L57.978127 120.53239L59.525 120.53239L59.525 121.81364L57.978127 121.81364L57.978127 124.56364L56.571877 124.56364ZM56.571877 120.53239L56.571877 115.36051L52.99375 120.53239L56.571877 120.53239ZM61.071877 121.56364L62.540627 121.43864Q62.7125 122.51676 63.30625 123.06364Q63.9 123.59489 64.74375 123.59489Q65.75938 123.59489 66.4625 122.82926Q67.16563 122.06364 67.16563 120.79801Q67.16563 119.59489 66.49375 118.90739Q65.82188 118.20426 64.72813 118.20426Q64.04063 118.20426 63.49375 118.51676Q62.946877 118.82926 62.634377 119.31364L61.321877 119.14176L62.43125 113.26676L68.11875 113.26676L68.11875 114.61051L63.55625 114.61051L62.93125 117.68864Q63.9625 116.96989 65.10313 116.96989Q66.60313 116.96989 67.63438 118.01676Q68.66563 119.04801 68.66563 120.67301Q68.66563 122.23551 67.75938 123.36051Q66.65 124.76676 64.74375 124.76676Q63.18125 124.76676 62.196877 123.89176Q61.2125 123.00114 61.071877 121.56364ZM70.07188 118.90739Q70.07188 116.87614 70.47813 115.64176Q70.9 114.40739 71.72813 113.73551Q72.55625 113.06364 73.80625 113.06364Q74.72813 113.06364 75.41563 113.43864Q76.11875 113.79801 76.57188 114.50114Q77.025 115.20426 77.275 116.20426Q77.54063 117.20426 77.54063 118.90739Q77.54063 120.92301 77.11875 122.17301Q76.7125 123.40739 75.88438 124.09489Q75.05625 124.76676 73.80625 124.76676Q72.15 124.76676 71.19688 123.56364Q70.07188 122.14176 70.07188 118.90739ZM71.50938 118.90739Q71.50938 121.73551 72.16563 122.67301Q72.8375 123.59489 73.80625 123.59489Q74.775 123.59489 75.43125 122.65739Q76.0875 121.71989 76.0875 118.90739Q76.0875 116.07926 75.43125 115.15739Q74.775 114.21989 73.79063 114.21989Q72.82188 114.21989 72.24375 115.04801Q71.50938 116.09489 71.50938 118.90739Z" fill-rule="nonzero"/><path fill="#000000" d="M52.071877 92.61515L53.540627 92.49015Q53.7125 93.568275 54.30625 94.11515Q54.9 94.6464 55.74375 94.6464Q56.759377 94.6464 57.4625 93.880775Q58.165627 93.11515 58.165627 91.849525Q58.165627 90.6464 57.49375 89.9589Q56.821877 89.255775 55.728127 89.255775Q55.040627 89.255775 54.49375 89.568275Q53.946877 89.880775 53.634377 90.36515L52.321877 90.193275L53.43125 84.318275L59.11875 84.318275L59.11875 85.662025L54.55625 85.662025L53.93125 88.74015Q54.9625 88.0214 56.103127 88.0214Q57.603127 88.0214 58.634377 89.068275Q59.665627 90.099525 59.665627 91.724525Q59.665627 93.287025 58.759377 94.412025Q57.65 95.818275 55.74375 95.818275Q54.18125 95.818275 53.196877 94.943275Q52.2125 94.05265 52.071877 92.61515ZM61.071877 89.9589Q61.071877 87.92765 61.478127 86.693275Q61.9 85.4589 62.728127 84.787025Q63.55625 84.11515 64.80625 84.11515Q65.72813 84.11515 66.41563 84.49015Q67.11875 84.849525 67.57188 85.55265Q68.025 86.255775 68.275 87.255775Q68.54063 88.255775 68.54063 89.9589Q68.54063 91.974525 68.11875 93.224525Q67.7125 94.4589 66.88438 95.1464Q66.05625 95.818275 64.80625 95.818275Q63.15 95.818275 62.196877 94.61515Q61.071877 93.193275 61.071877 89.9589ZM62.509377 89.9589Q62.509377 92.787025 63.165627 93.724525Q63.8375 94.6464 64.80625 94.6464Q65.775 94.6464 66.43125 93.7089Q67.0875 92.7714 67.0875 89.9589Q67.0875 87.130775 66.43125 86.2089Q65.775 85.2714 64.79063 85.2714Q63.821877 85.2714 63.24375 86.099525Q62.509377 87.1464 62.509377 89.9589ZM70.07188 89.9589Q70.07188 87.92765 70.47813 86.693275Q70.9 85.4589 71.72813 84.787025Q72.55625 84.11515 73.80625 84.11515Q74.72813 84.11515 75.41563 84.49015Q76.11875 84.849525 76.57188 85.55265Q77.025 86.255775 77.275 87.255775Q77.54063 88.255775 77.54063 89.9589Q77.54063 91.974525 77.11875 93.224525Q76.7125 94.4589 75.88438 95.1464Q75.05625 95.818275 73.80625 95.818275Q72.15 95.818275 71.19688 94.61515Q70.07188 93.193275 70.07188 89.9589ZM71.50938 89.9589Q71.50938 92.787025 72.16563 93.724525Q72.8375 94.6464 73.80625 94.6464Q74.775 94.6464 75.43125 93.7089Q76.0875 92.7714 76.0875 89.9589Q76.0875 87.130775 75.43125 86.2089Q74.775 85.2714 73.79063 85.2714Q72.82188 85.2714 72.24375 86.099525Q71.50938 87.1464 71.50938 89.9589Z" fill-rule="nonzero"/><path fill="#000000" d="M52.071877 63.666664L53.540627 63.541664Q53.7125 64.61979 54.30625 65.166664Q54.9 65.697914 55.74375 65.697914Q56.759377 65.697914 57.4625 64.93229Q58.165627 64.166664 58.165627 62.90104Q58.165627 61.697914 57.49375 61.010414Q56.821877 60.30729 55.728127 60.30729Q55.040627 60.30729 54.49375 60.61979Q53.946877 60.93229 53.634377 61.416664L52.321877 61.24479L53.43125 55.36979L59.11875 55.36979L59.11875 56.71354L54.55625 56.71354L53.93125 59.791664Q54.9625 59.072914 56.103127 59.072914Q57.603127 59.072914 58.634377 60.11979Q59.665627 61.15104 59.665627 62.77604Q59.665627 64.33854 58.759377 65.46354Q57.65 66.86979 55.74375 66.86979Q54.18125 66.86979 53.196877 65.99479Q52.2125 65.104164 52.071877 63.666664ZM61.071877 63.666664L62.540627 63.541664Q62.7125 64.61979 63.30625 65.166664Q63.9 65.697914 64.74375 65.697914Q65.75938 65.697914 66.4625 64.93229Q67.16563 64.166664 67.16563 62.90104Q67.16563 61.697914 66.49375 61.010414Q65.82188 60.30729 64.72813 60.30729Q64.04063 60.30729 63.49375 60.61979Q62.946877 60.93229 62.634377 61.416664L61.321877 61.24479L62.43125 55.36979L68.11875 55.36979L68.11875 56.71354L63.55625 56.71354L62.93125 59.791664Q63.9625 59.072914 65.10313 59.072914Q66.60313 59.072914 67.63438 60.11979Q68.66563 61.15104 68.66563 62.77604Q68.66563 64.33854 67.75938 65.46354Q66.65 66.86979 64.74375 66.86979Q63.18125 66.86979 62.196877 65.99479Q61.2125 65.104164 61.071877 63.666664ZM70.07188 61.010414Q70.07188 58.979164 70.47813 57.74479Q70.9 56.510414 71.72813 55.83854Q72.55625 55.166664 73.80625 55.166664Q74.72813 55.166664 75.41563 55.541664Q76.11875 55.90104 76.57188 56.604164Q77.025 57.30729 77.275 58.30729Q77.54063 59.30729 77.54063 61.010414Q77.54063 63.02604 77.11875 64.27604Q76.7125 65.510414 75.88438 66.197914Q75.05625 66.86979 73.80625 66.86979Q72.15 66.86979 71.19688 65.666664Q70.07188 64.24479 70.07188 61.010414ZM71.50938 61.010414Q71.50938 63.83854 72.16563 64.77604Q72.8375 65.697914 73.80625 65.697914Q74.775 65.697914 75.43125 64.760414Q76.0875 63.822914 76.0875 61.010414Q76.0875 58.18229 75.43125 57.260414Q74.775 56.322914 73.79063 56.322914Q72.82188 56.322914 72.24375 57.15104Q71.50938 58.197914 71.50938 61.010414Z" fill-rule="nonzero"/><path fill="#000000" d="M150.23837 402.6L148.83212 402.6L148.83212 393.63126Q148.3165 394.11563 147.48837 394.6Q146.67587 395.08438 146.01962 395.33438L146.01962 393.975Q147.1915 393.4125 148.0665 392.63126Q148.95712 391.83438 149.33212 391.1L150.23837 391.1L150.23837 402.6ZM154.14462 399.94376L155.504 399.81876Q155.67587 400.77188 156.16025 401.20938Q156.64462 401.63126 157.39462 401.63126Q158.05087 401.63126 158.53525 401.33438Q159.01962 401.0375 159.33212 400.55313Q159.64462 400.05313 159.84775 399.20938Q160.0665 398.36563 160.0665 397.49063Q160.0665 397.39688 160.0665 397.20938Q159.64462 397.88126 158.91025 398.30313Q158.17587 398.70938 157.33212 398.70938Q155.91025 398.70938 154.92587 397.67813Q153.9415 396.64688 153.9415 394.95938Q153.9415 393.225 154.95712 392.1625Q155.98837 391.1 157.53525 391.1Q158.66025 391.1 159.58212 391.70938Q160.504 392.30313 160.98837 393.4125Q161.47275 394.52188 161.47275 396.63126Q161.47275 398.83438 160.98837 400.13126Q160.51962 401.42813 159.5665 402.11563Q158.629 402.80313 157.36337 402.80313Q156.01962 402.80313 155.16025 402.05313Q154.3165 401.30313 154.14462 399.94376ZM159.91025 394.89688Q159.91025 393.67813 159.254 392.975Q158.61337 392.25626 157.70712 392.25626Q156.76962 392.25626 156.0665 393.02188Q155.379 393.7875 155.379 395.00626Q155.379 396.1 156.03525 396.7875Q156.70712 397.475 157.67587 397.475Q158.64462 397.475 159.26962 396.7875Q159.91025 396.1 159.91025 394.89688ZM163.14462 399.94376L164.504 399.81876Q164.67587 400.77188 165.16025 401.20938Q165.64462 401.63126 166.39462 401.63126Q167.05087 401.63126 167.53525 401.33438Q168.01962 401.0375 168.33212 400.55313Q168.64462 400.05313 168.84775 399.20938Q169.0665 398.36563 169.0665 397.49063Q169.0665 397.39688 169.0665 397.20938Q168.64462 397.88126 167.91025 398.30313Q167.17587 398.70938 166.33212 398.70938Q164.91025 398.70938 163.92587 397.67813Q162.9415 396.64688 162.9415 394.95938Q162.9415 393.225 163.95712 392.1625Q164.98837 391.1 166.53525 391.1Q167.66025 391.1 168.58212 391.70938Q169.504 392.30313 169.98837 393.4125Q170.47275 394.52188 170.47275 396.63126Q170.47275 398.83438 169.98837 400.13126Q169.51962 401.42813 168.5665 402.11563Q167.629 402.80313 166.36337 402.80313Q165.01962 402.80313 164.16025 402.05313Q163.3165 401.30313 163.14462 399.94376ZM168.91025 394.89688Q168.91025 393.67813 168.254 392.975Q167.61337 392.25626 166.70712 392.25626Q165.76962 392.25626 165.0665 393.02188Q164.379 393.7875 164.379 395.00626Q164.379 396.1 165.03525 396.7875Q165.70712 397.475 166.67587 397.475Q167.64462 397.475 168.26962 396.7875Q168.91025 396.1 168.91025 394.89688ZM171.9415 399.6L173.41025 399.475Q173.58212 400.55313 174.17587 401.1Q174.76962 401.63126 175.61337 401.63126Q176.629 401.63126 177.33212 400.86563Q178.03525 400.1 178.03525 398.83438Q178.03525 397.63126 177.36337 396.94376Q176.6915 396.24063 175.59775 396.24063Q174.91025 396.24063 174.36337 396.55313Q173.8165 396.86563 173.504 397.35L172.1915 397.17813L173.30087 391.30313L178.98837 391.30313L178.98837 392.64688L174.42587 392.64688L173.80087 395.725Q174.83212 395.00626 175.97275 395.00626Q177.47275 395.00626 178.504 396.05313Q179.53525 397.08438 179.53525 398.70938Q179.53525 400.27188 178.629 401.39688Q177.51962 402.80313 175.61337 402.80313Q174.05087 402.80313 173.0665 401.92813Q172.08212 401.0375 171.9415 399.6Z" fill-rule="nonzero"/><path fill="#000000" d="M238.62427 401.24063L238.62427 402.6L231.04614 402.6Q231.03052 402.08438 231.21802 401.61563Q231.49927 400.85 232.1399 400.1Q232.78052 399.35 233.98364 398.36563Q235.84302 396.83438 236.49927 395.94376Q237.15552 395.0375 237.15552 394.24063Q237.15552 393.4125 236.56177 392.83438Q235.96802 392.25626 234.99927 392.25626Q233.98364 392.25626 233.37427 392.86563Q232.7649 393.475 232.7649 394.55313L231.31177 394.4125Q231.46802 392.7875 232.43677 391.94376Q233.40552 391.1 235.03052 391.1Q236.68677 391.1 237.6399 392.02188Q238.60864 392.92813 238.60864 394.27188Q238.60864 394.95938 238.3274 395.63126Q238.04614 396.2875 237.3899 397.02188Q236.73364 397.75626 235.21802 399.0375Q233.9524 400.1 233.59302 400.49063Q233.23364 400.86563 232.99927 401.24063L238.62427 401.24063ZM240.23364 396.94376Q240.23364 394.9125 240.6399 393.67813Q241.06177 392.44376 241.8899 391.77188Q242.71802 391.1 243.96802 391.1Q244.8899 391.1 245.5774 391.475Q246.28052 391.83438 246.73364 392.5375Q247.18677 393.24063 247.43677 394.24063Q247.7024 395.24063 247.7024 396.94376Q247.7024 398.95938 247.28052 400.20938Q246.87427 401.44376 246.04614 402.13126Q245.21802 402.80313 243.96802 402.80313Q242.31177 402.80313 241.35864 401.6Q240.23364 400.17813 240.23364 396.94376ZM241.67114 396.94376Q241.67114 399.77188 242.3274 400.70938Q242.99927 401.63126 243.96802 401.63126Q244.93677 401.63126 245.59302 400.69376Q246.24927 399.75626 246.24927 396.94376Q246.24927 394.11563 245.59302 393.19376Q244.93677 392.25626 243.9524 392.25626Q242.98364 392.25626 242.40552 393.08438Q241.67114 394.13126 241.67114 396.94376ZM249.23364 396.94376Q249.23364 394.9125 249.6399 393.67813Q250.06177 392.44376 250.8899 391.77188Q251.71802 391.1 252.96802 391.1Q253.8899 391.1 254.5774 391.475Q255.28052 391.83438 255.73364 392.5375Q256.18677 393.24063 256.43677 394.24063Q256.7024 395.24063 256.7024 396.94376Q256.7024 398.95938 256.28052 400.20938Q255.87427 401.44376 255.04614 402.13126Q254.21802 402.80313 252.96802 402.80313Q251.31177 402.80313 250.35864 401.6Q249.23364 400.17813 249.23364 396.94376ZM250.67114 396.94376Q250.67114 399.77188 251.3274 400.70938Q251.99927 401.63126 252.96802 401.63126Q253.93677 401.63126 254.59302 400.69376Q255.24927 399.75626 255.24927 396.94376Q255.24927 394.11563 254.59302 393.19376Q253.93677 392.25626 252.9524 392.25626Q251.98364 392.25626 251.40552 393.08438Q250.67114 394.13126 250.67114 396.94376ZM258.23364 396.94376Q258.23364 394.9125 258.6399 393.67813Q259.06177 392.44376 259.8899 391.77188Q260.71802 391.1 261.96802 391.1Q262.8899 391.1 263.5774 391.475Q264.28052 391.83438 264.73364 392.5375Q265.18677 393.24063 265.43677 394.24063Q265.7024 395.24063 265.7024 396.94376Q265.7024 398.95938 265.28052 400.20938Q264.87427 401.44376 264.04614 402.13126Q263.21802 402.80313 261.96802 402.80313Q260.31177 402.80313 259.35864 401.6Q258.23364 400.17813 258.23364 396.94376ZM259.67114 396.94376Q259.67114 399.77188 260.3274 400.70938Q260.99927 401.63126 261.96802 401.63126Q262.93677 401.63126 263.59302 400.69376Q264.24927 399.75626 264.24927 396.94376Q264.24927 394.11563 263.59302 393.19376Q262.93677 392.25626 261.9524 392.25626Q260.98364 392.25626 260.40552 393.08438Q259.67114 394.13126 259.67114 396.94376Z" fill-rule="nonzero"/><path fill="#000000" d="M324.9164 401.24063L324.9164 402.6L317.3383 402.6Q317.32266 402.08438 317.51016 401.61563Q317.7914 400.85 318.43204 400.1Q319.07266 399.35 320.2758 398.36563Q322.13516 396.83438 322.7914 395.94376Q323.44766 395.0375 323.44766 394.24063Q323.44766 393.4125 322.8539 392.83438Q322.26016 392.25626 321.2914 392.25626Q320.2758 392.25626 319.6664 392.86563Q319.05704 393.475 319.05704 394.55313L317.6039 394.4125Q317.76016 392.7875 318.7289 391.94376Q319.69766 391.1 321.32266 391.1Q322.9789 391.1 323.93204 392.02188Q324.9008 392.92813 324.9008 394.27188Q324.9008 394.95938 324.61954 395.63126Q324.3383 396.2875 323.68204 397.02188Q323.0258 397.75626 321.51016 399.0375Q320.24454 400.1 319.88516 400.49063Q319.5258 400.86563 319.2914 401.24063L324.9164 401.24063ZM326.5258 396.94376Q326.5258 394.9125 326.93204 393.67813Q327.3539 392.44376 328.18204 391.77188Q329.01016 391.1 330.26016 391.1Q331.18204 391.1 331.86954 391.475Q332.57266 391.83438 333.0258 392.5375Q333.4789 393.24063 333.7289 394.24063Q333.99454 395.24063 333.99454 396.94376Q333.99454 398.95938 333.57266 400.20938Q333.1664 401.44376 332.3383 402.13126Q331.51016 402.80313 330.26016 402.80313Q328.6039 402.80313 327.6508 401.6Q326.5258 400.17813 326.5258 396.94376ZM327.9633 396.94376Q327.9633 399.77188 328.61954 400.70938Q329.2914 401.63126 330.26016 401.63126Q331.2289 401.63126 331.88516 400.69376Q332.5414 399.75626 332.5414 396.94376Q332.5414 394.11563 331.88516 393.19376Q331.2289 392.25626 330.24454 392.25626Q329.2758 392.25626 328.69766 393.08438Q327.9633 394.13126 327.9633 396.94376ZM335.5258 396.94376Q335.5258 394.9125 335.93204 393.67813Q336.3539 392.44376 337.18204 391.77188Q338.01016 391.1 339.26016 391.1Q340.18204 391.1 340.86954 391.475Q341.57266 391.83438 342.0258 392.5375Q342.4789 393.24063 342.7289 394.24063Q342.99454 395.24063 342.99454 396.94376Q342.99454 398.95938 342.57266 400.20938Q342.1664 401.44376 341.3383 402.13126Q340.51016 402.80313 339.26016 402.80313Q337.6039 402.80313 336.6508 401.6Q335.5258 400.17813 335.5258 396.94376ZM336.9633 396.94376Q336.9633 399.77188 337.61954 400.70938Q338.2914 401.63126 339.26016 401.63126Q340.2289 401.63126 340.88516 400.69376Q341.5414 399.75626 341.5414 396.94376Q341.5414 394.11563 340.88516 393.19376Q340.2289 392.25626 339.24454 392.25626Q338.2758 392.25626 337.69766 393.08438Q336.9633 394.13126 336.9633 396.94376ZM344.5258 399.6L345.99454 399.475Q346.1664 400.55313 346.76016 401.1Q347.3539 401.63126 348.19766 401.63126Q349.2133 401.63126 349.9164 400.86563Q350.61954 400.1 350.61954 398.83438Q350.61954 397.63126 349.94766 396.94376Q349.2758 396.24063 348.18204 396.24063Q347.49454 396.24063 346.94766 396.55313Q346.4008 396.86563 346.0883 397.35L344.7758 397.17813L345.88516 391.30313L351.57266 391.30313L351.57266 392.64688L347.01016 392.64688L346.38516 395.725Q347.4164 395.00626 348.55704 395.00626Q350.05704 395.00626 351.0883 396.05313Q352.11954 397.08438 352.11954 398.70938Q352.11954 400.27188 351.2133 401.39688Q350.1039 402.80313 348.19766 402.80313Q346.63516 402.80313 345.6508 401.92813Q344.6664 401.0375 344.5258 399.6Z" fill-rule="nonzero"/><path fill="#000000" d="M411.2086 401.24063L411.2086 402.6L403.63046 402.6Q403.61484 402.08438 403.80234 401.61563Q404.0836 400.85 404.7242 400.1Q405.36484 399.35 406.56796 398.36563Q408.42734 396.83438 409.0836 395.94376Q409.73984 395.0375 409.73984 394.24063Q409.73984 393.4125 409.1461 392.83438Q408.55234 392.25626 407.5836 392.25626Q406.56796 392.25626 405.9586 392.86563Q405.3492 393.475 405.3492 394.55313L403.8961 394.4125Q404.05234 392.7875 405.0211 391.94376Q405.98984 391.1 407.61484 391.1Q409.2711 391.1 410.2242 392.02188Q411.19296 392.92813 411.19296 394.27188Q411.19296 394.95938 410.9117 395.63126Q410.63046 396.2875 409.9742 397.02188Q409.31796 397.75626 407.80234 399.0375Q406.5367 400.1 406.17734 400.49063Q405.81796 400.86563 405.5836 401.24063L411.2086 401.24063ZM412.81796 396.94376Q412.81796 394.9125 413.2242 393.67813Q413.6461 392.44376 414.4742 391.77188Q415.30234 391.1 416.55234 391.1Q417.4742 391.1 418.1617 391.475Q418.86484 391.83438 419.31796 392.5375Q419.7711 393.24063 420.0211 394.24063Q420.2867 395.24063 420.2867 396.94376Q420.2867 398.95938 419.86484 400.20938Q419.4586 401.44376 418.63046 402.13126Q417.80234 402.80313 416.55234 402.80313Q414.8961 402.80313 413.94296 401.6Q412.81796 400.17813 412.81796 396.94376ZM414.25546 396.94376Q414.25546 399.77188 414.9117 400.70938Q415.5836 401.63126 416.55234 401.63126Q417.5211 401.63126 418.17734 400.69376Q418.8336 399.75626 418.8336 396.94376Q418.8336 394.11563 418.17734 393.19376Q417.5211 392.25626 416.5367 392.25626Q415.56796 392.25626 414.98984 393.08438Q414.25546 394.13126 414.25546 396.94376ZM427.11484 402.6L425.7086 402.6L425.7086 393.63126Q425.19296 394.11563 424.36484 394.6Q423.55234 395.08438 422.8961 395.33438L422.8961 393.975Q424.06796 393.4125 424.94296 392.63126Q425.8336 391.83438 426.2086 391.1L427.11484 391.1L427.11484 402.6ZM430.81796 396.94376Q430.81796 394.9125 431.2242 393.67813Q431.6461 392.44376 432.4742 391.77188Q433.30234 391.1 434.55234 391.1Q435.4742 391.1 436.1617 391.475Q436.86484 391.83438 437.31796 392.5375Q437.7711 393.24063 438.0211 394.24063Q438.2867 395.24063 438.2867 396.94376Q438.2867 398.95938 437.86484 400.20938Q437.4586 401.44376 436.63046 402.13126Q435.80234 402.80313 434.55234 402.80313Q432.8961 402.80313 431.94296 401.6Q430.81796 400.17813 430.81796 396.94376ZM432.25546 396.94376Q432.25546 399.77188 432.9117 400.70938Q433.5836 401.63126 434.55234 401.63126Q435.5211 401.63126 436.17734 400.69376Q436.8336 399.75626 436.8336 396.94376Q436.8336 394.11563 436.17734 393.19376Q435.5211 392.25626 434.5367 392.25626Q433.56796 392.25626 432.98984 393.08438Q432.25546 394.13126 432.25546 396.94376Z" fill-rule="nonzero"/><path fill="#000000" d="M497.50073 401.24063L497.50073 402.6L489.9226 402.6Q489.90698 402.08438 490.09448 401.61563Q490.37573 400.85 491.01636 400.1Q491.65698 399.35 492.8601 398.36563Q494.71948 396.83438 495.37573 395.94376Q496.03198 395.0375 496.03198 394.24063Q496.03198 393.4125 495.43823 392.83438Q494.84448 392.25626 493.87573 392.25626Q492.8601 392.25626 492.25073 392.86563Q491.64136 393.475 491.64136 394.55313L490.18823 394.4125Q490.34448 392.7875 491.31323 391.94376Q492.28198 391.1 493.90698 391.1Q495.56323 391.1 496.51636 392.02188Q497.4851 392.92813 497.4851 394.27188Q497.4851 394.95938 497.20386 395.63126Q496.9226 396.2875 496.26636 397.02188Q495.6101 397.75626 494.09448 399.0375Q492.82886 400.1 492.46948 400.49063Q492.1101 400.86563 491.87573 401.24063L497.50073 401.24063ZM499.1101 396.94376Q499.1101 394.9125 499.51636 393.67813Q499.93823 392.44376 500.76636 391.77188Q501.59448 391.1 502.84448 391.1Q503.76636 391.1 504.45386 391.475Q505.15698 391.83438 505.6101 392.5375Q506.06323 393.24063 506.31323 394.24063Q506.57886 395.24063 506.57886 396.94376Q506.57886 398.95938 506.15698 400.20938Q505.75073 401.44376 504.9226 402.13126Q504.09448 402.80313 502.84448 402.80313Q501.18823 402.80313 500.2351 401.6Q499.1101 400.17813 499.1101 396.94376ZM500.5476 396.94376Q500.5476 399.77188 501.20386 400.70938Q501.87573 401.63126 502.84448 401.63126Q503.81323 401.63126 504.46948 400.69376Q505.12573 399.75626 505.12573 396.94376Q505.12573 394.11563 504.46948 393.19376Q503.81323 392.25626 502.82886 392.25626Q501.8601 392.25626 501.28198 393.08438Q500.5476 394.13126 500.5476 396.94376ZM513.407 402.6L512.00073 402.6L512.00073 393.63126Q511.4851 394.11563 510.65698 394.6Q509.84448 395.08438 509.18823 395.33438L509.18823 393.975Q510.3601 393.4125 511.2351 392.63126Q512.12573 391.83438 512.50073 391.1L513.407 391.1L513.407 402.6ZM517.1101 399.6L518.57886 399.475Q518.75073 400.55313 519.3445 401.1Q519.93823 401.63126 520.782 401.63126Q521.7976 401.63126 522.50073 400.86563Q523.20386 400.1 523.20386 398.83438Q523.20386 397.63126 522.532 396.94376Q521.8601 396.24063 520.76636 396.24063Q520.07886 396.24063 519.532 396.55313Q518.9851 396.86563 518.6726 397.35L517.3601 397.17813L518.4695 391.30313L524.157 391.30313L524.157 392.64688L519.5945 392.64688L518.9695 395.725Q520.00073 395.00626 521.14136 395.00626Q522.64136 395.00626 523.6726 396.05313Q524.70386 397.08438 524.70386 398.70938Q524.70386 400.27188 523.7976 401.39688Q522.68823 402.80313 520.782 402.80313Q519.2195 402.80313 518.2351 401.92813Q517.25073 401.0375 517.1101 399.6Z" fill-rule="nonzero"/><path fill="#000000" d="M583.7929 401.24063L583.7929 402.6L576.2148 402.6Q576.19916 402.08438 576.38666 401.61563Q576.6679 400.85 577.30853 400.1Q577.94916 399.35 579.1523 398.36563Q581.01166 396.83438 581.6679 395.94376Q582.32416 395.0375 582.32416 394.24063Q582.32416 393.4125 581.7304 392.83438Q581.13666 392.25626 580.1679 392.25626Q579.1523 392.25626 578.5429 392.86563Q577.93353 393.475 577.93353 394.55313L576.4804 394.4125Q576.63666 392.7875 577.6054 391.94376Q578.57416 391.1 580.19916 391.1Q581.8554 391.1 582.80853 392.02188Q583.7773 392.92813 583.7773 394.27188Q583.7773 394.95938 583.49603 395.63126Q583.2148 396.2875 582.55853 397.02188Q581.9023 397.75626 580.38666 399.0375Q579.12103 400.1 578.76166 400.49063Q578.4023 400.86563 578.1679 401.24063L583.7929 401.24063ZM585.4023 396.94376Q585.4023 394.9125 585.80853 393.67813Q586.2304 392.44376 587.05853 391.77188Q587.88666 391.1 589.13666 391.1Q590.05853 391.1 590.74603 391.475Q591.44916 391.83438 591.9023 392.5375Q592.3554 393.24063 592.6054 394.24063Q592.87103 395.24063 592.87103 396.94376Q592.87103 398.95938 592.44916 400.20938Q592.0429 401.44376 591.2148 402.13126Q590.38666 402.80313 589.13666 402.80313Q587.4804 402.80313 586.5273 401.6Q585.4023 400.17813 585.4023 396.94376ZM586.8398 396.94376Q586.8398 399.77188 587.49603 400.70938Q588.1679 401.63126 589.13666 401.63126Q590.1054 401.63126 590.76166 400.69376Q591.4179 399.75626 591.4179 396.94376Q591.4179 394.11563 590.76166 393.19376Q590.1054 392.25626 589.12103 392.25626Q588.1523 392.25626 587.57416 393.08438Q586.8398 394.13126 586.8398 396.94376ZM601.7929 401.24063L601.7929 402.6L594.2148 402.6Q594.19916 402.08438 594.38666 401.61563Q594.6679 400.85 595.30853 400.1Q595.94916 399.35 597.1523 398.36563Q599.01166 396.83438 599.6679 395.94376Q600.32416 395.0375 600.32416 394.24063Q600.32416 393.4125 599.7304 392.83438Q599.13666 392.25626 598.1679 392.25626Q597.1523 392.25626 596.5429 392.86563Q595.93353 393.475 595.93353 394.55313L594.4804 394.4125Q594.63666 392.7875 595.6054 391.94376Q596.57416 391.1 598.19916 391.1Q599.8554 391.1 600.80853 392.02188Q601.7773 392.92813 601.7773 394.27188Q601.7773 394.95938 601.49603 395.63126Q601.2148 396.2875 600.55853 397.02188Q599.9023 397.75626 598.38666 399.0375Q597.12103 400.1 596.76166 400.49063Q596.4023 400.86563 596.1679 401.24063L601.7929 401.24063ZM603.4023 396.94376Q603.4023 394.9125 603.80853 393.67813Q604.2304 392.44376 605.05853 391.77188Q605.88666 391.1 607.13666 391.1Q608.05853 391.1 608.74603 391.475Q609.44916 391.83438 609.9023 392.5375Q610.3554 393.24063 610.6054 394.24063Q610.87103 395.24063 610.87103 396.94376Q610.87103 398.95938 610.44916 400.20938Q610.0429 401.44376 609.2148 402.13126Q608.38666 402.80313 607.13666 402.80313Q605.4804 402.80313 604.5273 401.6Q603.4023 400.17813 603.4023 396.94376ZM604.8398 396.94376Q604.8398 399.77188 605.49603 400.70938Q606.1679 401.63126 607.13666 401.63126Q608.1054 401.63126 608.76166 400.69376Q609.4179 399.75626 609.4179 396.94376Q609.4179 394.11563 608.76166 393.19376Q608.1054 392.25626 607.12103 392.25626Q606.1523 392.25626 605.57416 393.08438Q604.8398 394.13126 604.8398 396.94376Z" fill-rule="nonzero"/><path fill="#999999" d="M22.025 31.181252L23.275 31.071877Q23.36875 31.821877 23.696875 32.30625Q24.025 32.790627 24.696875 33.0875Q25.384375 33.384377 26.24375 33.384377Q26.99375 33.384377 27.571875 33.165627Q28.165625 32.93125 28.446875 32.540627Q28.728125 32.15 28.728125 31.681252Q28.728125 31.212502 28.446875 30.868752Q28.18125 30.509377 27.55625 30.259377Q27.15 30.103127 25.759375 29.775002Q24.384375 29.446877 23.8375 29.150002Q23.11875 28.775002 22.759375 28.228127Q22.415625 27.665627 22.415625 26.962502Q22.415625 26.212502 22.8375 25.556252Q23.275 24.884377 24.103125 24.556252Q24.93125 24.212502 25.946875 24.212502Q27.05625 24.212502 27.9 24.571877Q28.759375 24.931252 29.2125 25.634377Q29.665625 26.321877 29.7125 27.196877L28.43125 27.290627Q28.3375 26.353127 27.74375 25.868752Q27.15 25.368752 25.99375 25.368752Q24.790625 25.368752 24.24375 25.821877Q23.696875 26.259377 23.696875 26.884377Q23.696875 27.415627 24.0875 27.775002Q24.4625 28.118752 26.071875 28.493752Q27.696875 28.853127 28.290625 29.118752Q29.165625 29.525002 29.5875 30.150002Q30.009375 30.759377 30.009375 31.571877Q30.009375 32.36875 29.540625 33.0875Q29.0875 33.790627 28.228125 34.18125Q27.36875 34.571877 26.30625 34.571877Q24.946875 34.571877 24.025 34.18125Q23.103125 33.775 22.571875 32.978127Q22.05625 32.18125 22.025 31.181252ZM30.86875 30.775002Q30.86875 28.759377 31.99375 27.775002Q32.915627 26.978127 34.275 26.978127Q35.759377 26.978127 36.7125 27.962502Q37.665627 28.931252 37.665627 30.665627Q37.665627 32.071877 37.24375 32.884377Q36.821877 33.68125 36.009377 34.134377Q35.2125 34.571877 34.275 34.571877Q32.74375 34.571877 31.80625 33.5875Q30.86875 32.603127 30.86875 30.775002ZM32.134377 30.775002Q32.134377 32.165627 32.74375 32.86875Q33.353127 33.55625 34.275 33.55625Q35.18125 33.55625 35.790627 32.853127Q36.4 32.15 36.4 30.728127Q36.4 29.384377 35.790627 28.696877Q35.18125 27.993752 34.275 27.993752Q33.353127 27.993752 32.74375 28.681252Q32.134377 29.368752 32.134377 30.775002ZM44.0875 34.4L44.0875 33.3375Q43.228127 34.571877 41.775 34.571877Q41.134377 34.571877 40.571877 34.321877Q40.025 34.071877 39.74375 33.696877Q39.478127 33.321877 39.36875 32.790627Q39.290627 32.43125 39.290627 31.634377L39.290627 27.134377L40.525 27.134377L40.525 31.165627Q40.525 32.134377 40.603127 32.4625Q40.7125 32.946877 41.0875 33.228127Q41.4625 33.509377 42.025 33.509377Q42.571877 33.509377 43.05625 33.228127Q43.540627 32.93125 43.74375 32.446877Q43.946877 31.962502 43.946877 31.025002L43.946877 27.134377L45.18125 27.134377L45.18125 34.4L44.0875 34.4ZM47.30625 34.4L47.30625 27.134377L48.415627 27.134377L48.415627 28.243752Q48.8375 27.462502 49.196877 27.228127Q49.55625 26.978127 49.99375 26.978127Q50.61875 26.978127 51.259377 27.368752L50.8375 28.509377Q50.384377 28.243752 49.93125 28.243752Q49.525 28.243752 49.196877 28.493752Q48.884377 28.728127 48.74375 29.165627Q48.540627 29.821877 48.540627 30.603127L48.540627 34.4L47.30625 34.4ZM57.05625 31.743752L58.275 31.900002Q58.071877 33.15 57.24375 33.86875Q56.43125 34.571877 55.24375 34.571877Q53.759377 34.571877 52.853127 33.603127Q51.946877 32.61875 51.946877 30.790627Q51.946877 29.618752 52.3375 28.743752Q52.728127 27.853127 53.525 27.415627Q54.321877 26.978127 55.259377 26.978127Q56.43125 26.978127 57.18125 27.571877Q57.946877 28.165627 58.15 29.275002L56.9625 29.462502Q56.790627 28.728127 56.353127 28.368752Q55.915627 27.993752 55.30625 27.993752Q54.36875 27.993752 53.790627 28.665627Q53.2125 29.321877 53.2125 30.759377Q53.2125 32.228127 53.775 32.9Q54.3375 33.55625 55.228127 33.55625Q55.9625 33.55625 56.446877 33.11875Q56.93125 32.665627 57.05625 31.743752ZM64.29063 32.05625L65.57188 32.2125Q65.25938 33.3375 64.44688 33.9625Q63.634377 34.571877 62.36875 34.571877Q60.775 34.571877 59.8375 33.5875Q58.915627 32.603127 58.915627 30.837502Q58.915627 28.993752 59.853127 27.993752Q60.80625 26.978127 62.30625 26.978127Q63.759377 26.978127 64.68125 27.978127Q65.60313 28.962502 65.60313 30.759377Q65.60313 30.868752 65.60313 31.087502L60.18125 31.087502Q60.259377 32.275 60.853127 32.915627Q61.4625 33.55625 62.384377 33.55625Q63.05625 33.55625 63.525 33.196877Q64.00938 32.8375 64.29063 32.05625ZM60.259377 30.071877L64.30625 30.071877Q64.22813 29.150002 63.8375 28.696877Q63.259377 27.993752 62.321877 27.993752Q61.4625 27.993752 60.884377 28.556252Q60.321877 29.118752 60.259377 30.071877ZM67.66563 28.540627L67.66563 27.134377L69.07188 27.134377L69.07188 28.540627L67.66563 28.540627ZM67.66563 34.4L67.66563 32.99375L69.07188 32.99375L69.07188 34.4L67.66563 34.4ZM82.05625 24.384377L83.38438 24.384377L83.38438 30.165627Q83.38438 31.681252 83.04063 32.571877Q82.69688 33.4625 81.80625 34.025Q80.91563 34.571877 79.4625 34.571877Q78.05625 34.571877 77.15 34.0875Q76.25938 33.603127 75.86875 32.68125Q75.49375 31.759377 75.49375 30.165627L75.49375 24.384377L76.82188 24.384377L76.82188 30.165627Q76.82188 31.462502 77.05625 32.0875Q77.30625 32.696877 77.9 33.040627Q78.49375 33.36875 79.35313 33.36875Q80.80625 33.36875 81.43125 32.7125Q82.05625 32.040627 82.05625 30.165627L82.05625 24.384377ZM84.66563 34.4L84.66563 32.99375L86.07188 32.99375L86.07188 34.4L84.66563 34.4ZM88.025 31.181252L89.275 31.071877Q89.36875 31.821877 89.69688 32.30625Q90.025 32.790627 90.69688 33.0875Q91.38438 33.384377 92.24375 33.384377Q92.99375 33.384377 93.57188 33.165627Q94.16563 32.93125 94.44688 32.540627Q94.72813 32.15 94.72813 31.681252Q94.72813 31.212502 94.44688 30.868752Q94.18125 30.509377 93.55625 30.259377Q93.15 30.103127 91.75938 29.775002Q90.38438 29.446877 89.8375 29.150002Q89.11875 28.775002 88.75938 28.228127Q88.41563 27.665627 88.41563 26.962502Q88.41563 26.212502 88.8375 25.556252Q89.275 24.884377 90.10313 24.556252Q90.93125 24.212502 91.94688 24.212502Q93.05625 24.212502 93.9 24.571877Q94.75938 24.931252 95.2125 25.634377Q95.66563 26.321877 95.7125 27.196877L94.43125 27.290627Q94.3375 26.353127 93.74375 25.868752Q93.15 25.368752 91.99375 25.368752Q90.79063 25.368752 90.24375 25.821877Q89.69688 26.259377 89.69688 26.884377Q89.69688 27.415627 90.0875 27.775002Q90.4625 28.118752 92.07188 28.493752Q93.69688 28.853127 94.29063 29.118752Q95.16563 29.525002 95.5875 30.150002Q96.00938 30.759377 96.00938 31.571877Q96.00938 32.36875 95.54063 33.0875Q95.0875 33.790627 94.22813 34.18125Q93.36875 34.571877 92.30625 34.571877Q90.94688 34.571877 90.025 34.18125Q89.10313 33.775 88.57188 32.978127Q88.05625 32.18125 88.025 31.181252ZM101.55625 34.4L101.55625 24.384377L108.30625 24.384377L108.30625 25.556252L102.86875 25.556252L102.86875 28.665627L107.57188 28.665627L107.57188 29.853127L102.86875 29.853127L102.86875 34.4L101.55625 34.4ZM110.43125 34.4L110.43125 24.384377L114.18125 24.384377Q115.3375 24.384377 116.025 24.696877Q116.72813 24.993752 117.11875 25.618752Q117.50938 26.243752 117.50938 26.946877Q117.50938 27.587502 117.15 28.150002Q116.80625 28.712502 116.10313 29.071877Q117.00938 29.337502 117.49375 29.978127Q117.99375 30.618752 117.99375 31.493752Q117.99375 32.196877 117.69688 32.80625Q117.4 33.415627 116.9625 33.74375Q116.525 34.071877 115.85313 34.24375Q115.19688 34.4 114.24375 34.4L110.43125 34.4ZM111.75938 28.587502L113.91563 28.587502Q114.80625 28.587502 115.18125 28.478127Q115.69688 28.321877 115.94688 27.978127Q116.19688 27.618752 116.19688 27.103127Q116.19688 26.603127 115.9625 26.228127Q115.72813 25.837502 115.275 25.696877Q114.8375 25.556252 113.75938 25.556252L111.75938 25.556252L111.75938 28.587502ZM111.75938 33.2125L114.24375 33.2125Q114.88438 33.2125 115.15 33.165627Q115.60313 33.0875 115.91563 32.9Q116.22813 32.696877 116.41563 32.3375Q116.61875 31.978127 116.61875 31.493752Q116.61875 30.931252 116.32188 30.525002Q116.04063 30.103127 115.525 29.946877Q115.025 29.775002 114.07188 29.775002L111.75938 29.775002L111.75938 33.2125ZM119.7125 34.4L119.7125 24.384377L121.025 24.384377L121.025 34.4L119.7125 34.4ZM133.63437 30.884377L134.9625 31.228127Q134.54062 32.853127 133.44687 33.7125Q132.36874 34.571877 130.80624 34.571877Q129.18124 34.571877 128.16562 33.915627Q127.15 33.24375 126.61875 31.993752Q126.10313 30.743752 126.10313 29.306252Q126.10313 27.743752 126.69688 26.587502Q127.29063 25.415627 128.4 24.821877Q129.50937 24.212502 130.82187 24.212502Q132.3375 24.212502 133.35312 24.978127Q134.38437 25.743752 134.79062 27.118752L133.47812 27.431252Q133.13437 26.337502 132.4625 25.837502Q131.80624 25.337502 130.80624 25.337502Q129.65 25.337502 128.86874 25.900002Q128.0875 26.446877 127.775 27.384377Q127.4625 28.321877 127.4625 29.306252Q127.4625 30.587502 127.8375 31.540627Q128.2125 32.49375 128.99374 32.9625Q129.775 33.43125 130.69687 33.43125Q131.80624 33.43125 132.57187 32.790627Q133.35312 32.15 133.63437 30.884377ZM136.30624 34.4L136.30624 27.134377L137.41562 27.134377L137.41562 28.243752Q137.8375 27.462502 138.19687 27.228127Q138.55624 26.978127 138.99374 26.978127Q139.61874 26.978127 140.25937 27.368752L139.8375 28.509377Q139.38437 28.243752 138.93124 28.243752Q138.525 28.243752 138.19687 28.493752Q137.88437 28.728127 137.74374 29.165627Q137.54062 29.821877 137.54062 30.603127L137.54062 34.4L136.30624 34.4ZM141.3375 25.790627L141.3375 24.384377L142.55624 24.384377L142.55624 25.790627L141.3375 25.790627ZM141.3375 34.4L141.3375 27.134377L142.55624 27.134377L142.55624 34.4L141.3375 34.4ZM144.32187 34.4L144.32187 27.134377L145.43124 27.134377L145.43124 28.165627Q145.75937 27.618752 146.32187 27.306252Q146.9 26.978127 147.61874 26.978127Q148.43124 26.978127 148.94687 27.321877Q149.4625 27.650002 149.68124 28.243752Q150.54062 26.978127 151.91562 26.978127Q152.99374 26.978127 153.57187 27.571877Q154.16562 28.165627 154.16562 29.415627L154.16562 34.4L152.93124 34.4L152.93124 29.821877Q152.93124 29.087502 152.80624 28.759377Q152.69687 28.431252 152.38437 28.243752Q152.07187 28.040627 151.65 28.040627Q150.88437 28.040627 150.36874 28.556252Q149.86874 29.056252 149.86874 30.181252L149.86874 34.4L148.63437 34.4L148.63437 29.681252Q148.63437 28.868752 148.3375 28.462502Q148.04062 28.040627 147.35312 28.040627Q146.8375 28.040627 146.38437 28.321877Q145.94687 28.587502 145.74374 29.118752Q145.55624 29.634377 145.55624 30.634377L145.55624 34.4L144.32187 34.4ZM160.29062 32.05625L161.57187 32.2125Q161.25937 33.3375 160.44687 33.9625Q159.63437 34.571877 158.36874 34.571877Q156.775 34.571877 155.8375 33.5875Q154.91562 32.603127 154.91562 30.837502Q154.91562 28.993752 155.85312 27.993752Q156.80624 26.978127 158.30624 26.978127Q159.75937 26.978127 160.68124 27.978127Q161.60312 28.962502 161.60312 30.759377Q161.60312 30.868752 161.60312 31.087502L156.18124 31.087502Q156.25937 32.275 156.85312 32.915627Q157.4625 33.55625 158.38437 33.55625Q159.05624 33.55625 159.525 33.196877Q160.00937 32.8375 160.29062 32.05625ZM156.25937 30.071877L160.30624 30.071877Q160.22812 29.150002 159.8375 28.696877Q159.25937 27.993752 158.32187 27.993752Q157.4625 27.993752 156.88437 28.556252Q156.32187 29.118752 156.25937 30.071877ZM167.47812 34.4L167.47812 24.384377L170.93124 24.384377Q172.10312 24.384377 172.7125 24.525002Q173.57187 24.712502 174.18124 25.243752Q174.97812 25.915627 175.36874 26.962502Q175.75937 27.993752 175.75937 29.337502Q175.75937 30.478127 175.49374 31.368752Q175.22812 32.24375 174.80624 32.821877Q174.4 33.4 173.9 33.728127Q173.4 34.05625 172.69687 34.228127Q172.00937 34.4 171.10312 34.4L167.47812 34.4ZM168.80624 33.2125L170.94687 33.2125Q171.93124 33.2125 172.49374 33.040627Q173.07187 32.853127 173.4 32.509377Q173.86874 32.040627 174.13437 31.243752Q174.4 30.446877 174.4 29.306252Q174.4 27.743752 173.88437 26.900002Q173.36874 26.056252 172.63437 25.759377Q172.0875 25.556252 170.91562 25.556252L168.80624 25.556252L168.80624 33.2125ZM182.05624 33.509377Q181.38437 34.0875 180.74374 34.3375Q180.11874 34.571877 179.38437 34.571877Q178.19687 34.571877 177.54062 33.99375Q176.9 33.4 176.9 32.478127Q176.9 31.946877 177.13437 31.509377Q177.38437 31.071877 177.775 30.806252Q178.18124 30.540627 178.66562 30.400002Q179.025 30.306252 179.75937 30.212502Q181.25937 30.040627 181.9625 29.790627Q181.9625 29.540627 181.9625 29.478127Q181.9625 28.712502 181.61874 28.415627Q181.15 27.993752 180.2125 27.993752Q179.35312 27.993752 178.93124 28.306252Q178.525 28.603127 178.32187 29.368752L177.11874 29.212502Q177.275 28.431252 177.65 27.962502Q178.04062 27.493752 178.74374 27.243752Q179.4625 26.978127 180.4 26.978127Q181.32187 26.978127 181.9 27.196877Q182.47812 27.415627 182.74374 27.743752Q183.025 28.071877 183.13437 28.587502Q183.19687 28.900002 183.19687 29.712502L183.19687 31.353127Q183.19687 33.071877 183.275 33.525Q183.35312 33.978127 183.5875 34.4L182.30624 34.4Q182.11874 34.009377 182.05624 33.509377ZM181.9625 30.759377Q181.29062 31.025002 179.94687 31.228127Q179.19687 31.337502 178.86874 31.478127Q178.55624 31.603127 178.38437 31.868752Q178.2125 32.134377 178.2125 32.446877Q178.2125 32.946877 178.5875 33.275Q178.9625 33.603127 179.68124 33.603127Q180.4 33.603127 180.94687 33.290627Q181.49374 32.978127 181.75937 32.43125Q181.9625 32.025 181.9625 31.212502L181.9625 30.759377ZM188.00937 33.30625L188.18124 34.384377Q187.66562 34.49375 187.25937 34.49375Q186.5875 34.49375 186.2125 34.290627Q185.85312 34.071877 185.69687 33.728127Q185.55624 33.384377 185.55624 32.275L185.55624 28.103127L184.65 28.103127L184.65 27.134377L185.55624 27.134377L185.55624 25.337502L186.775 24.603127L186.775 27.134377L188.00937 27.134377L188.00937 28.103127L186.775 28.103127L186.775 32.3375Q186.775 32.86875 186.8375 33.025Q186.9 33.165627 187.04062 33.259377Q187.19687 33.353127 187.4625 33.353127Q187.68124 33.353127 188.00937 33.30625ZM194.05624 33.509377Q193.38437 34.0875 192.74374 34.3375Q192.11874 34.571877 191.38437 34.571877Q190.19687 34.571877 189.54062 33.99375Q188.9 33.4 188.9 32.478127Q188.9 31.946877 189.13437 31.509377Q189.38437 31.071877 189.775 30.806252Q190.18124 30.540627 190.66562 30.400002Q191.025 30.306252 191.75937 30.212502Q193.25937 30.040627 193.9625 29.790627Q193.9625 29.540627 193.9625 29.478127Q193.9625 28.712502 193.61874 28.415627Q193.15 27.993752 192.2125 27.993752Q191.35312 27.993752 190.93124 28.306252Q190.525 28.603127 190.32187 29.368752L189.11874 29.212502Q189.275 28.431252 189.65 27.962502Q190.04062 27.493752 190.74374 27.243752Q191.4625 26.978127 192.4 26.978127Q193.32187 26.978127 193.9 27.196877Q194.47812 27.415627 194.74374 27.743752Q195.025 28.071877 195.13437 28.587502Q195.19687 28.900002 195.19687 29.712502L195.19687 31.353127Q195.19687 33.071877 195.275 33.525Q195.35312 33.978127 195.5875 34.4L194.30624 34.4Q194.11874 34.009377 194.05624 33.509377ZM193.9625 30.759377Q193.29062 31.025002 191.94687 31.228127Q191.19687 31.337502 190.86874 31.478127Q190.55624 31.603127 190.38437 31.868752Q190.2125 32.134377 190.2125 32.446877Q190.2125 32.946877 190.5875 33.275Q190.9625 33.603127 191.68124 33.603127Q192.4 33.603127 192.94687 33.290627Q193.49374 32.978127 193.75937 32.43125Q193.9625 32.025 193.9625 31.212502L193.9625 30.759377ZM201.50937 34.4L201.50937 24.384377L208.75937 24.384377L208.75937 25.556252L202.8375 25.556252L202.8375 28.634377L208.38437 28.634377L208.38437 29.806252L202.8375 29.806252L202.8375 33.2125L208.99374 33.2125L208.99374 34.4L201.50937 34.4ZM209.50937 34.4L212.15 30.618752L209.69687 27.134377L211.24374 27.134377L212.35312 28.837502Q212.66562 29.321877 212.85312 29.650002Q213.16562 29.196877 213.41562 28.853127L214.63437 27.134377L216.10312 27.134377L213.60312 30.556252L216.29062 34.4L214.79062 34.4L213.29062 32.15L212.9 31.540627L210.99374 34.4L209.50937 34.4ZM216.32187 37.18125L216.32187 27.134377L217.44687 27.134377L217.44687 28.087502Q217.8375 27.525002 218.3375 27.259377Q218.8375 26.978127 219.55624 26.978127Q220.47812 26.978127 221.18124 27.462502Q221.9 27.931252 222.25937 28.806252Q222.61874 29.681252 222.61874 30.712502Q222.61874 31.821877 222.2125 32.728127Q221.82187 33.61875 221.05624 34.103127Q220.30624 34.571877 219.4625 34.571877Q218.85312 34.571877 218.35312 34.30625Q217.86874 34.040627 217.55624 33.65L217.55624 37.18125L216.32187 37.18125ZM217.43124 30.806252Q217.43124 32.2125 217.99374 32.884377Q218.57187 33.55625 219.38437 33.55625Q220.19687 33.55625 220.775 32.86875Q221.36874 32.165627 221.36874 30.712502Q221.36874 29.321877 220.79062 28.634377Q220.22812 27.946877 219.43124 27.946877Q218.65 27.946877 218.04062 28.681252Q217.43124 29.415627 217.43124 30.806252ZM224.29062 34.4L224.29062 24.384377L225.525 24.384377L225.525 34.4L224.29062 34.4ZM226.86874 30.775002Q226.86874 28.759377 227.99374 27.775002Q228.91562 26.978127 230.275 26.978127Q231.75937 26.978127 232.7125 27.962502Q233.66562 28.931252 233.66562 30.665627Q233.66562 32.071877 233.24374 32.884377Q232.82187 33.68125 232.00937 34.134377Q231.2125 34.571877 230.275 34.571877Q228.74374 34.571877 227.80624 33.5875Q226.86874 32.603127 226.86874 30.775002ZM228.13437 30.775002Q228.13437 32.165627 228.74374 32.86875Q229.35312 33.55625 230.275 33.55625Q231.18124 33.55625 231.79062 32.853127Q232.4 32.15 232.4 30.728127Q232.4 29.384377 231.79062 28.696877Q231.18124 27.993752 230.275 27.993752Q229.35312 27.993752 228.74374 28.681252Q228.13437 29.368752 228.13437 30.775002ZM235.30624 34.4L235.30624 27.134377L236.41562 27.134377L236.41562 28.243752Q236.8375 27.462502 237.19687 27.228127Q237.55624 26.978127 237.99374 26.978127Q238.61874 26.978127 239.25937 27.368752L238.8375 28.509377Q238.38437 28.243752 237.93124 28.243752Q237.525 28.243752 237.19687 28.493752Q236.88437 28.728127 236.74374 29.165627Q236.54062 29.821877 236.54062 30.603127L236.54062 34.4L235.30624 34.4ZM245.29062 32.05625L246.57187 32.2125Q246.25937 33.3375 245.44687 33.9625Q244.63437 34.571877 243.36874 34.571877Q241.775 34.571877 240.8375 33.5875Q239.91562 32.603127 239.91562 30.837502Q239.91562 28.993752 240.85312 27.993752Q241.80624 26.978127 243.30624 26.978127Q244.75937 26.978127 245.68124 27.978127Q246.60312 28.962502 246.60312 30.759377Q246.60312 30.868752 246.60312 31.087502L241.18124 31.087502Q241.25937 32.275 241.85312 32.915627Q242.4625 33.55625 243.38437 33.55625Q244.05624 33.55625 244.525 33.196877Q245.00937 32.8375 245.29062 32.05625ZM241.25937 30.071877L245.30624 30.071877Q245.22812 29.150002 244.8375 28.696877Q244.25937 27.993752 243.32187 27.993752Q242.4625 27.993752 241.88437 28.556252Q241.32187 29.118752 241.25937 30.071877ZM248.30624 34.4L248.30624 27.134377L249.41562 27.134377L249.41562 28.243752Q249.8375 27.462502 250.19687 27.228127Q250.55624 26.978127 250.99374 26.978127Q251.61874 26.978127 252.25937 27.368752L251.8375 28.509377Q251.38437 28.243752 250.93124 28.243752Q250.525 28.243752 250.19687 28.493752Q249.88437 28.728127 249.74374 29.165627Q249.54062 29.821877 249.54062 30.603127L249.54062 34.4L248.30624 34.4Z" fill-rule="nonzero"/></svg>